<svg width="26" height="28" viewBox="0 0 26 28" fill="none" xmlns="http://www.w3.org/2000/svg">
<path fill-rule="evenodd" clip-rule="evenodd" d="M4.428 1.09601C4.71148 0.720651 5.15462 0.5 5.625 0.5H20.125C20.5954 0.5 21.0385 0.720651 21.322 1.09601L24.947 5.89602C25.1436 6.15637 25.25 6.47374 25.25 6.8V23.6C25.25 24.6377 24.8348 25.6308 24.0992 26.3614C23.3639 27.0916 22.3688 27.5 21.3333 27.5H4.41667C3.38124 27.5 2.38614 27.0916 1.65084 26.3614C0.915188 25.6308 0.5 24.6377 0.5 23.6V6.8C0.5 6.47374 0.606375 6.15637 0.802999 5.89602L4.428 1.09601ZM6.37189 3.5L5.01251 5.3H20.7375L19.3781 3.5H6.37189ZM22.25 8.3H3.5V23.6C3.5 23.8353 3.59404 24.0631 3.76481 24.2327C3.93593 24.4027 4.17022 24.5 4.41667 24.5H21.3333C21.5798 24.5 21.8141 24.4027 21.9852 24.2327C22.156 24.0631 22.25 23.8353 22.25 23.6V8.3ZM8.04167 10.1C8.87009 10.1 9.54167 10.7716 9.54167 11.6C9.54167 12.4719 9.89032 13.3101 10.5143 13.9298C11.1386 14.5498 11.9876 14.9 12.875 14.9C13.7624 14.9 14.6114 14.5498 15.2357 13.9298C15.8597 13.3101 16.2083 12.4719 16.2083 11.6C16.2083 10.7716 16.8799 10.1 17.7083 10.1C18.5368 10.1 19.2083 10.7716 19.2083 11.6C19.2083 13.2742 18.5385 14.8778 17.3497 16.0584C16.1612 17.2388 14.5514 17.9 12.875 17.9C11.1986 17.9 9.58885 17.2388 8.40033 16.0584C7.21147 14.8778 6.54167 13.2742 6.54167 11.6C6.54167 10.7716 7.21324 10.1 8.04167 10.1Z" fill="white"/>
</svg>
