<svg width="21" height="21" viewBox="0 0 21 21" fill="none" xmlns="http://www.w3.org/2000/svg">
<path d="M11.2196 1.37275L20.1509 10.3041C20.2337 10.5221 20.244 10.6668 20.205 10.762C20.1952 10.8227 20.1774 10.8878 20.1509 10.9576L11.2196 19.8889C10.8694 20.2107 9.97031 20.6555 9.17518 19.8604C8.38005 19.0652 8.75856 18.0998 9.0472 17.7165L14.5968 12.1669H1.96937C1.49423 12.1 0.543945 11.685 0.543945 10.5605C0.543945 9.43602 1.49423 9.11477 1.96937 9.0947H14.5968L9.0472 3.54514C8.75856 3.16183 8.38005 2.19644 9.17518 1.40131C9.97031 0.606175 10.8694 1.05096 11.2196 1.37275Z" fill="#B3B3B3"/>
</svg>
