<svg width="24" height="17" viewBox="0 0 24 17" fill="none" xmlns="http://www.w3.org/2000/svg">
<path fill-rule="evenodd" clip-rule="evenodd" d="M0 1.03571C0 0.483421 0.447715 0.0357056 1 0.0357056H23C23.5523 0.0357056 24 0.483421 24 1.03571C24 1.58799 23.5523 2.03571 23 2.03571H1C0.447715 2.03571 0 1.58799 0 1.03571ZM0 8.49999C0 7.94771 0.447715 7.49999 1 7.49999H23C23.5523 7.49999 24 7.94771 24 8.49999C24 9.05228 23.5523 9.49999 23 9.49999H1C0.447715 9.49999 0 9.05228 0 8.49999ZM0 15.9643C0 15.412 0.447715 14.9643 1 14.9643H23C23.5523 14.9643 24 15.412 24 15.9643C24 16.5166 23.5523 16.9643 23 16.9643H1C0.447715 16.9643 0 16.5166 0 15.9643Z" fill="black"/>
</svg>
