<svg width="28" height="31" viewBox="0 0 28 31" fill="none" xmlns="http://www.w3.org/2000/svg">
<path d="M8.99984 3.83333C8.55781 3.83333 8.13389 4.00892 7.82133 4.32148C7.50877 4.63404 7.33317 5.05797 7.33317 5.5C7.33317 5.94202 7.50877 6.36595 7.82133 6.67851C8.13389 6.99107 8.55781 7.16666 8.99984 7.16666C9.44186 7.16666 9.86579 6.99107 10.1783 6.67851C10.4909 6.36595 10.6665 5.94202 10.6665 5.5C10.6665 5.05797 10.4909 4.63404 10.1783 4.32148C9.86579 4.00892 9.44186 3.83333 8.99984 3.83333ZM4.28317 3.83333C4.62751 2.85744 5.26607 2.01238 6.11084 1.41464C6.9556 0.816904 7.96498 0.495911 8.99984 0.495911C10.0347 0.495911 11.0441 0.816904 11.8888 1.41464C12.7336 2.01238 13.3722 2.85744 13.7165 3.83333H25.6665C26.1085 3.83333 26.5325 4.00892 26.845 4.32148C27.1576 4.63404 27.3332 5.05797 27.3332 5.5C27.3332 5.94202 27.1576 6.36595 26.845 6.67851C26.5325 6.99107 26.1085 7.16666 25.6665 7.16666H13.7165C13.3722 8.14255 12.7336 8.98761 11.8888 9.58535C11.0441 10.1831 10.0347 10.5041 8.99984 10.5041C7.96498 10.5041 6.9556 10.1831 6.11084 9.58535C5.26607 8.98761 4.62751 8.14255 4.28317 7.16666H2.33317C1.89114 7.16666 1.46722 6.99107 1.15466 6.67851C0.842099 6.36595 0.666504 5.94202 0.666504 5.5C0.666504 5.05797 0.842099 4.63404 1.15466 4.32148C1.46722 4.00892 1.89114 3.83333 2.33317 3.83333H4.28317ZM18.9998 13.8333C18.5578 13.8333 18.1339 14.0089 17.8213 14.3215C17.5088 14.634 17.3332 15.058 17.3332 15.5C17.3332 15.942 17.5088 16.3659 17.8213 16.6785C18.1339 16.9911 18.5578 17.1667 18.9998 17.1667C19.4419 17.1667 19.8658 16.9911 20.1783 16.6785C20.4909 16.3659 20.6665 15.942 20.6665 15.5C20.6665 15.058 20.4909 14.634 20.1783 14.3215C19.8658 14.0089 19.4419 13.8333 18.9998 13.8333ZM14.2832 13.8333C14.6275 12.8574 15.2661 12.0124 16.1108 11.4146C16.9556 10.8169 17.965 10.4959 18.9998 10.4959C20.0347 10.4959 21.0441 10.8169 21.8888 11.4146C22.7336 12.0124 23.3722 12.8574 23.7165 13.8333H25.6665C26.1085 13.8333 26.5325 14.0089 26.845 14.3215C27.1576 14.634 27.3332 15.058 27.3332 15.5C27.3332 15.942 27.1576 16.3659 26.845 16.6785C26.5325 16.9911 26.1085 17.1667 25.6665 17.1667H23.7165C23.3722 18.1426 22.7336 18.9876 21.8888 19.5853C21.0441 20.1831 20.0347 20.5041 18.9998 20.5041C17.965 20.5041 16.9556 20.1831 16.1108 19.5853C15.2661 18.9876 14.6275 18.1426 14.2832 17.1667H2.33317C1.89114 17.1667 1.46722 16.9911 1.15466 16.6785C0.842099 16.3659 0.666504 15.942 0.666504 15.5C0.666504 15.058 0.842099 14.634 1.15466 14.3215C1.46722 14.0089 1.89114 13.8333 2.33317 13.8333H14.2832ZM8.99984 23.8333C8.55781 23.8333 8.13389 24.0089 7.82133 24.3215C7.50877 24.634 7.33317 25.058 7.33317 25.5C7.33317 25.942 7.50877 26.3659 7.82133 26.6785C8.13389 26.9911 8.55781 27.1667 8.99984 27.1667C9.44186 27.1667 9.86579 26.9911 10.1783 26.6785C10.4909 26.3659 10.6665 25.942 10.6665 25.5C10.6665 25.058 10.4909 24.634 10.1783 24.3215C9.86579 24.0089 9.44186 23.8333 8.99984 23.8333ZM4.28317 23.8333C4.62751 22.8574 5.26607 22.0124 6.11084 21.4146C6.9556 20.8169 7.96498 20.4959 8.99984 20.4959C10.0347 20.4959 11.0441 20.8169 11.8888 21.4146C12.7336 22.0124 13.3722 22.8574 13.7165 23.8333H25.6665C26.1085 23.8333 26.5325 24.0089 26.845 24.3215C27.1576 24.634 27.3332 25.058 27.3332 25.5C27.3332 25.942 27.1576 26.3659 26.845 26.6785C26.5325 26.9911 26.1085 27.1667 25.6665 27.1667H13.7165C13.3722 28.1426 12.7336 28.9876 11.8888 29.5853C11.0441 30.1831 10.0347 30.5041 8.99984 30.5041C7.96498 30.5041 6.9556 30.1831 6.11084 29.5853C5.26607 28.9876 4.62751 28.1426 4.28317 27.1667H2.33317C1.89114 27.1667 1.46722 26.9911 1.15466 26.6785C0.842099 26.3659 0.666504 25.942 0.666504 25.5C0.666504 25.058 0.842099 24.634 1.15466 24.3215C1.46722 24.0089 1.89114 23.8333 2.33317 23.8333H4.28317Z" fill="black"/>
</svg>
