<?xml version="1.0" encoding="utf-8"?>
<!-- Generator: Adobe Illustrator 24.1.2, SVG Export Plug-In . SVG Version: 6.00 Build 0)  -->
<svg version="1.1" id="Layer_1" xmlns="http://www.w3.org/2000/svg" xmlns:xlink="http://www.w3.org/1999/xlink" x="0px" y="0px"
	 viewBox="0 0 264.7 55" style="enable-background:new 0 0 264.7 55;" xml:space="preserve">
<style type="text/css">
	.st0{fill:#FFFFFF;}
</style>
<g>
	<path class="st0" d="M81.3,3.7c0,0.6-0.2,1.1-0.6,1.5s-0.9,0.6-1.5,0.6h-4.8c-0.4,0-0.6,0.2-0.6,0.6v23c0,0.6-0.2,1.1-0.6,1.5
		s-0.9,0.6-1.5,0.6h-1.2c-0.6,0-1.1-0.2-1.5-0.6s-0.6-0.9-0.6-1.5v-23c0-0.4-0.2-0.6-0.6-0.6h-4.9c-0.6,0-1.1-0.2-1.5-0.6
		s-0.6-0.9-0.6-1.5V2.4c0-0.6,0.2-1.1,0.6-1.5c0.4-0.4,0.9-0.6,1.5-0.6h16.4c0.6,0,1.1,0.2,1.5,0.6s0.6,0.9,0.6,1.5v1.3H81.3z"/>
	<path class="st0" d="M105.8,28.7c0.3,0.7,0.3,1.4-0.1,1.9c-0.5,0.6-1,1-1.8,1h-1.4c-0.4,0-0.8-0.1-1.2-0.4
		c-0.4-0.2-0.6-0.6-0.8-0.9l-4.3-10.4c-0.2-0.4-0.4-0.6-0.8-0.6h-4.3c-0.4,0-0.6,0.2-0.6,0.6v9.5c0,0.6-0.2,1.1-0.6,1.5
		c-0.4,0.5-0.9,0.7-1.5,0.7h-1.3c-0.6,0-1.1-0.2-1.5-0.6S85,30.1,85,29.5v-27c0-0.6,0.2-1.1,0.6-1.5s0.9-0.6,1.5-0.6h12.5
		c1.1,0,2.1,0.3,3,0.8c0.9,0.6,1.7,1.3,2.2,2.2c0.6,0.9,0.8,2,0.8,3.1v6.8c0,1.2-0.3,2.3-1,3.3c-0.6,1-1.4,1.7-2.4,2.2
		c-0.1,0-0.2,0.1-0.3,0.3c-0.1,0.2,0,0.3,0,0.5L105.8,28.7z M100.2,13.2V6.5c0-0.4-0.2-0.6-0.6-0.6h-8.5c-0.4,0-0.6,0.2-0.6,0.6v6.8
		c0,0.4,0.2,0.6,0.6,0.6h8.5C100,13.8,100.2,13.6,100.2,13.2z"/>
	<path class="st0" d="M115.3,29.4c0,0.6-0.2,1.1-0.6,1.5s-0.9,0.6-1.5,0.6H112c-0.6,0-1.1-0.2-1.5-0.6s-0.6-0.9-0.6-1.5v-27
		c0-0.6,0.2-1.1,0.6-1.5s0.9-0.6,1.5-0.6h1.2c0.6,0,1.1,0.2,1.5,0.6s0.6,0.9,0.6,1.5V29.4z"/>
	<path class="st0" d="M140.2,29.4c0,0.6-0.2,1.1-0.6,1.5c-0.4,0.4-0.9,0.6-1.5,0.6h-1.3c-0.8,0-1.4-0.4-1.8-1.1l-9.8-17.1
		c-0.1-0.1-0.2-0.2-0.3-0.1c-0.1,0-0.2,0.1-0.2,0.2v15.9c0,0.6-0.2,1.1-0.6,1.5s-0.9,0.6-1.4,0.6h-1.3c-0.6,0-1.1-0.2-1.5-0.6
		s-0.6-0.9-0.6-1.5v-27c0-0.6,0.2-1.1,0.6-1.5s0.9-0.6,1.5-0.6h1.3c0.8,0,1.4,0.4,1.8,1.1l9.8,17.1c0.1,0.1,0.2,0.2,0.3,0.1
		c0.1,0,0.2-0.1,0.2-0.2V2.4c0-0.6,0.2-1.1,0.6-1.5c0.4-0.4,0.9-0.6,1.5-0.6h1.2c0.6,0,1.1,0.2,1.5,0.6s0.6,0.9,0.6,1.5L140.2,29.4
		L140.2,29.4z"/>
	<path class="st0" d="M149.4,29.4c0,0.6-0.2,1.1-0.6,1.5c-0.4,0.4-0.9,0.6-1.5,0.6h-1.2c-0.6,0-1.1-0.2-1.5-0.6S144,30,144,29.4v-27
		c0-0.6,0.2-1.1,0.6-1.5c0.4-0.4,0.9-0.6,1.5-0.6h1.2c0.6,0,1.1,0.2,1.5,0.6s0.6,0.9,0.6,1.5V29.4z"/>
	<path class="st0" d="M173.7,3.7c0,0.6-0.2,1.1-0.6,1.5c-0.4,0.4-0.9,0.6-1.5,0.6h-4.8c-0.4,0-0.6,0.2-0.6,0.6v23
		c0,0.6-0.2,1.1-0.6,1.5c-0.4,0.4-0.9,0.6-1.5,0.6h-1.2c-0.6,0-1.1-0.2-1.5-0.6s-0.6-0.9-0.6-1.5v-23c0-0.4-0.2-0.6-0.6-0.6h-4.9
		c-0.6,0-1.1-0.2-1.5-0.6s-0.6-0.9-0.6-1.5V2.4c0-0.6,0.2-1.1,0.6-1.5c0.4-0.4,0.9-0.6,1.5-0.6h16.4c0.6,0,1.1,0.2,1.5,0.6
		s0.6,0.9,0.6,1.5L173.7,3.7L173.7,3.7z"/>
	<path class="st0" d="M200.9,1.4c0.4,0.7,0.4,1.4,0,2.2l-8.6,14c-0.1,0.2-0.2,0.4-0.2,0.8v11.1c0,0.6-0.2,1.1-0.6,1.5
		c-0.4,0.4-0.9,0.6-1.5,0.6h-1.3c-0.6,0-1.1-0.2-1.5-0.6s-0.6-0.9-0.6-1.5V18.3c0-0.3-0.1-0.6-0.2-0.7l-8.6-14.1
		c-0.4-0.8-0.4-1.5,0-2.1c0.4-0.7,1-1.1,1.8-1.1h1.5c0.8,0,1.4,0.3,1.8,1c0.3,0.5,0.8,1.4,1.5,2.5s1.4,2.4,2.3,3.7
		c0.8,1.3,1.6,2.6,2.4,3.8c0.1,0.1,0.2,0.2,0.3,0.2c0.2,0,0.3-0.1,0.4-0.2c0.8-1.4,1.6-2.7,2.4-4c0.8-1.3,1.5-2.5,2.2-3.6
		s1.2-1.9,1.5-2.5c0.4-0.7,1-1,1.8-1h1.5C199.9,0.3,200.5,0.7,200.9,1.4z"/>
	<path class="st0" d="M215,20.2c0,0.6-0.2,1.1-0.6,1.5c-0.4,0.4-0.9,0.6-1.5,0.6h-10.5c-0.6,0-1.1-0.2-1.5-0.6s-0.6-0.9-0.6-1.5
		v-1.3c0-0.6,0.2-1.1,0.6-1.4c0.4-0.4,0.9-0.6,1.5-0.6h10.5c0.6,0,1.1,0.2,1.5,0.6s0.6,0.8,0.6,1.4V20.2z"/>
	<path class="st0" d="M239.8,25.5c0,1.1-0.3,2.1-0.8,3.1c-0.6,0.9-1.3,1.7-2.2,2.2c-0.9,0.6-1.9,0.8-3,0.8H225
		c-1.1,0-2.1-0.3-3.1-0.8c-0.9-0.6-1.7-1.3-2.2-2.2c-0.6-0.9-0.8-1.9-0.8-3.1v-1.4c0-0.6,0.2-1.1,0.6-1.5c0.4-0.4,0.9-0.6,1.5-0.6
		h1.3c0.6,0,1,0.2,1.4,0.6s0.6,0.9,0.6,1.5v1.4c0,0.2,0.1,0.3,0.2,0.5c0.2,0.1,0.3,0.2,0.5,0.2h8.8c0.2,0,0.3-0.1,0.4-0.2
		c0.1-0.2,0.2-0.3,0.2-0.5v-4.2c0-0.3-0.2-0.6-0.5-0.6l-11.1-4.2c-1.2-0.4-2.2-1.2-2.9-2.3s-1.1-2.3-1.1-3.6V6.5
		c0-1.1,0.3-2.2,0.8-3.1c0.6-0.9,1.3-1.7,2.2-2.2c1-0.6,2-0.8,3.1-0.8h8.8c1.1,0,2.1,0.3,3,0.8c0.9,0.6,1.7,1.3,2.2,2.2
		c0.6,0.9,0.8,2,0.8,3.1v1.2c0,0.6-0.2,1.1-0.6,1.5c-0.4,0.4-0.9,0.6-1.5,0.6h-1.1c-0.6,0-1.1-0.2-1.5-0.6c-0.4-0.4-0.6-0.9-0.6-1.5
		V6.5c0-0.4-0.2-0.6-0.6-0.6H225c-0.2,0-0.3,0.1-0.5,0.2c-0.1,0.1-0.2,0.3-0.2,0.5v4c0,0.4,0.2,0.6,0.5,0.7l11.1,4.2
		c1.2,0.4,2.2,1.2,2.9,2.3c0.7,1.1,1.1,2.3,1.1,3.5L239.8,25.5L239.8,25.5z"/>
	<path class="st0" d="M264.1,25.5c0,1.1-0.3,2.1-0.8,3.1c-0.6,0.9-1.3,1.7-2.2,2.2c-0.9,0.6-1.9,0.8-3,0.8h-12.3
		c-0.6,0-1.1-0.2-1.5-0.6s-0.6-0.9-0.6-1.5v-27c0-0.6,0.2-1.1,0.6-1.5c0.4-0.4,0.9-0.6,1.5-0.6h11.7c1.1,0,2.2,0.3,3,0.8
		c0.9,0.6,1.7,1.3,2.2,2.2c0.6,0.9,0.8,2,0.8,3.1V12c0,0.8-0.2,1.6-0.5,2.3c-0.2,0.3-0.1,0.7,0.1,1c0.7,1,1,2.2,1,3.4V25.5z M258,12
		V6.5c0-0.2-0.1-0.3-0.2-0.5c-0.1-0.1-0.3-0.2-0.4-0.2h-7.6c-0.4,0-0.6,0.2-0.6,0.6V12c0,0.4,0.2,0.6,0.6,0.6h7.6
		c0.2,0,0.3-0.1,0.4-0.2C257.9,12.3,258,12.1,258,12z M258.6,25.5v-6.8c0-0.4-0.2-0.6-0.6-0.6h-8.3c-0.4,0-0.6,0.2-0.6,0.6v6.8
		c0,0.4,0.2,0.6,0.6,0.6h8.3c0.2,0,0.3-0.1,0.4-0.2C258.5,25.8,258.6,25.6,258.6,25.5z"/>
	<path class="st0" d="M227.8,42.3c0.1,0.2,0.1,0.5,0,0.7l-3.2,4.8c0,0.1-0.1,0.1-0.1,0.3v3.8c0,0.2-0.1,0.4-0.2,0.5
		c-0.1,0.1-0.3,0.2-0.5,0.2h-0.5c-0.2,0-0.4-0.1-0.6-0.2c-0.1-0.1-0.2-0.3-0.2-0.5v-3.8c0-0.1,0-0.2-0.1-0.3l-3.2-4.8
		c-0.1-0.3-0.2-0.5,0-0.7c0.1-0.3,0.4-0.4,0.7-0.4h0.5c0.3,0,0.5,0.1,0.7,0.3c0.1,0.2,0.3,0.5,0.6,0.9c0.2,0.4,0.5,0.8,0.8,1.3
		s0.6,0.9,0.9,1.3l0.1,0.1c0.1,0,0.1,0,0.1-0.1c0.3-0.5,0.6-0.9,0.9-1.4c0.3-0.5,0.6-0.9,0.8-1.2c0.2-0.4,0.4-0.7,0.6-0.9
		c0.1-0.2,0.4-0.3,0.7-0.3h0.5C227.4,41.9,227.7,42,227.8,42.3z"/>
	<path class="st0" d="M67.4,43.2c0,0.2-0.1,0.4-0.2,0.5c-0.1,0.1-0.3,0.2-0.6,0.2h-1.8c-0.1,0-0.2,0.1-0.2,0.2v7.7
		c0,0.2-0.1,0.4-0.2,0.5s-0.3,0.2-0.5,0.2h-0.4c-0.2,0-0.4-0.1-0.6-0.2c-0.1-0.1-0.2-0.3-0.2-0.5v-7.7c0-0.1-0.1-0.2-0.2-0.2h-1.8
		c-0.2,0-0.4-0.1-0.6-0.2c-0.1-0.1-0.2-0.3-0.2-0.5v-0.4c0-0.2,0.1-0.4,0.2-0.5c0.2-0.1,0.3-0.2,0.6-0.2h6c0.2,0,0.4,0.1,0.6,0.2
		c0.1,0.1,0.2,0.3,0.2,0.5L67.4,43.2L67.4,43.2z"/>
	<path class="st0" d="M76.1,51.8c0,0.2-0.1,0.4-0.2,0.5s-0.3,0.2-0.5,0.2h-5.9c-0.2,0-0.4-0.1-0.5-0.2c-0.1-0.1-0.2-0.3-0.2-0.5
		v-9.1c0-0.2,0.1-0.4,0.2-0.5c0.2-0.1,0.3-0.2,0.5-0.2h5.8c0.2,0,0.4,0.1,0.5,0.2c0.2,0.1,0.2,0.3,0.2,0.5v0.4
		c0,0.2-0.1,0.4-0.2,0.5s-0.3,0.2-0.5,0.2h-4.4c-0.1,0-0.2,0.1-0.2,0.2v2.1c0,0.1,0.1,0.2,0.2,0.2h3.8c0.2,0,0.4,0.1,0.6,0.2
		c0.1,0.1,0.2,0.3,0.2,0.5v0.4c0,0.2-0.1,0.4-0.2,0.5c-0.1,0.1-0.3,0.2-0.6,0.2h-3.8c-0.1,0-0.2,0.1-0.2,0.2v2.1
		c0,0.1,0.1,0.2,0.2,0.2h4.4c0.2,0,0.4,0.1,0.5,0.2C76,51,76,51.2,76,51.4L76.1,51.8L76.1,51.8z"/>
	<path class="st0" d="M85,50.5c0,0.4-0.1,0.7-0.3,1c-0.2,0.3-0.5,0.6-0.8,0.7c-0.3,0.2-0.7,0.3-1.1,0.3h-3c-0.4,0-0.8-0.1-1.1-0.3
		c-0.3-0.2-0.6-0.4-0.8-0.7c-0.2-0.3-0.3-0.7-0.3-1v-6.4c0-0.4,0.1-0.7,0.3-1c0.2-0.3,0.5-0.6,0.8-0.7c0.4-0.2,0.7-0.3,1.1-0.3h3
		c0.4,0,0.8,0.1,1.1,0.3c0.3,0.2,0.6,0.4,0.8,0.7c0.2,0.3,0.3,0.7,0.3,1v0.4c0,0.2-0.1,0.4-0.2,0.5s-0.3,0.2-0.6,0.2h-0.5
		c-0.2,0-0.4-0.1-0.6-0.2c-0.1-0.1-0.2-0.3-0.2-0.5v-0.4c0-0.1-0.1-0.2-0.2-0.2h-3c-0.1,0-0.2,0.1-0.2,0.2v6.4c0,0.1,0,0.1,0.1,0.2
		c0,0,0.1,0.1,0.2,0.1h3c0.1,0,0.1,0,0.2-0.1c0-0.1,0.1-0.1,0.1-0.2V50c0-0.2,0.1-0.4,0.2-0.5c0.2-0.1,0.3-0.2,0.6-0.2h0.5
		c0.2,0,0.4,0.1,0.6,0.2c0.1,0.1,0.2,0.3,0.2,0.5v0.5H85z"/>
	<path class="st0" d="M93.9,51.8c0,0.2-0.1,0.4-0.2,0.5s-0.3,0.2-0.6,0.2h-0.5c-0.2,0-0.4-0.1-0.6-0.2c-0.1-0.1-0.2-0.3-0.2-0.5
		v-3.4c0-0.1-0.1-0.2-0.2-0.2h-3c-0.1,0-0.2,0.1-0.2,0.2v3.4c0,0.2-0.1,0.4-0.2,0.5s-0.3,0.2-0.5,0.2h-0.5c-0.2,0-0.4-0.1-0.6-0.2
		c-0.1-0.1-0.2-0.3-0.2-0.5v-9.1c0-0.2,0.1-0.4,0.2-0.5c0.2-0.1,0.3-0.2,0.6-0.2h0.5c0.2,0,0.4,0.1,0.5,0.2c0.2,0.1,0.2,0.3,0.2,0.5
		v3.4c0,0.1,0.1,0.2,0.2,0.2h3c0.1,0,0.2-0.1,0.2-0.2v-3.4c0-0.2,0.1-0.4,0.2-0.5c0.2-0.1,0.3-0.2,0.6-0.2h0.5
		c0.2,0,0.4,0.1,0.6,0.2c0.1,0.1,0.2,0.3,0.2,0.5V51.8z"/>
	<path class="st0" d="M103,51.8c0,0.2-0.1,0.4-0.2,0.5s-0.3,0.2-0.5,0.2h-0.5c-0.3,0-0.5-0.1-0.7-0.4l-3.6-5.7c0,0-0.1-0.1-0.1,0
		c0,0-0.1,0-0.1,0.1v5.3c0,0.2-0.1,0.4-0.2,0.5s-0.3,0.2-0.5,0.2h-0.5c-0.2,0-0.4-0.1-0.6-0.2c-0.1-0.1-0.2-0.3-0.2-0.5v-9.1
		c0-0.2,0.1-0.4,0.2-0.5c0.2-0.1,0.3-0.2,0.6-0.2h0.5c0.3,0,0.5,0.1,0.7,0.4l3.6,5.7c0,0,0.1,0.1,0.1,0c0,0,0.1,0,0.1-0.1v-5.3
		c0-0.2,0.1-0.4,0.2-0.5c0.2-0.1,0.3-0.2,0.6-0.2h0.5c0.2,0,0.4,0.1,0.5,0.2c0.2,0.1,0.2,0.3,0.2,0.5L103,51.8L103,51.8z"/>
	<path class="st0" d="M106.4,51.8c0,0.2-0.1,0.4-0.2,0.5s-0.3,0.2-0.5,0.2h-0.5c-0.2,0-0.4-0.1-0.6-0.2c-0.1-0.1-0.2-0.3-0.2-0.5
		v-9.1c0-0.2,0.1-0.4,0.2-0.5c0.2-0.1,0.3-0.2,0.6-0.2h0.5c0.2,0,0.4,0.1,0.5,0.2c0.2,0.1,0.2,0.3,0.2,0.5V51.8z"/>
	<path class="st0" d="M115.4,50.5c0,0.4-0.1,0.7-0.3,1c-0.2,0.3-0.5,0.6-0.8,0.7c-0.3,0.2-0.7,0.3-1.1,0.3h-3
		c-0.4,0-0.8-0.1-1.1-0.3c-0.3-0.2-0.6-0.4-0.8-0.7c-0.2-0.3-0.3-0.7-0.3-1v-6.4c0-0.4,0.1-0.7,0.3-1c0.2-0.3,0.5-0.6,0.8-0.7
		c0.4-0.2,0.7-0.3,1.1-0.3h3c0.4,0,0.8,0.1,1.1,0.3c0.3,0.2,0.6,0.4,0.8,0.7c0.2,0.3,0.3,0.7,0.3,1v0.4c0,0.2-0.1,0.4-0.2,0.5
		s-0.3,0.2-0.6,0.2h-0.5c-0.2,0-0.4-0.1-0.6-0.2c-0.1-0.1-0.2-0.3-0.2-0.5v-0.4c0-0.1-0.1-0.2-0.2-0.2h-3c-0.1,0-0.2,0.1-0.2,0.2
		v6.4c0,0.1,0,0.1,0.1,0.2c0,0,0.1,0.1,0.2,0.1h3c0.1,0,0.1,0,0.2-0.1c0-0.1,0.1-0.1,0.1-0.2V50c0-0.2,0.1-0.4,0.2-0.5
		c0.2-0.1,0.3-0.2,0.6-0.2h0.5c0.2,0,0.4,0.1,0.6,0.2c0.1,0.1,0.2,0.3,0.2,0.5v0.5H115.4z"/>
	<path class="st0" d="M125.5,51.6c0.1,0.2,0,0.5-0.1,0.7s-0.4,0.3-0.6,0.3h-0.5c-0.2,0-0.3,0-0.5-0.1c-0.1-0.1-0.2-0.2-0.3-0.3
		l-0.6-1.8c0-0.1-0.1-0.2-0.3-0.2h-2.9c-0.1,0-0.2,0.1-0.3,0.2l-0.6,1.8c-0.1,0.1-0.2,0.2-0.3,0.3s-0.3,0.1-0.5,0.1h-0.5
		c-0.3,0-0.5-0.1-0.6-0.3c-0.2-0.2-0.2-0.4-0.1-0.7l3.3-9.1c0.1-0.1,0.1-0.3,0.3-0.3c0.1-0.1,0.3-0.1,0.4-0.1h0.7
		c0.2,0,0.3,0,0.4,0.1s0.2,0.2,0.3,0.3L125.5,51.6z M122.1,48l-0.8-2.4c-0.1-0.1-0.1-0.1-0.2,0l-0.8,2.4c0,0.1,0,0.1,0,0.1l0.1,0.1
		h1.6C122.1,48.2,122.1,48.2,122.1,48C122.1,48.1,122.1,48.1,122.1,48z"/>
	<path class="st0" d="M134.2,51.8c0,0.2-0.1,0.4-0.2,0.5c-0.1,0.1-0.3,0.2-0.5,0.2h-5.8c-0.2,0-0.4-0.1-0.5-0.2
		c-0.1-0.1-0.2-0.3-0.2-0.5v-9.1c0-0.2,0.1-0.4,0.2-0.5c0.2-0.1,0.3-0.2,0.5-0.2h0.5c0.2,0,0.4,0.1,0.5,0.2c0.2,0.1,0.2,0.3,0.2,0.5
		v7.7c0,0.1,0.1,0.2,0.2,0.2h4.4c0.2,0,0.4,0.1,0.5,0.2c0.2,0.1,0.2,0.3,0.2,0.5C134.2,51.3,134.2,51.8,134.2,51.8z"/>
	<path class="st0" d="M147.2,50.5c0,0.4-0.1,0.7-0.3,1s-0.5,0.6-0.8,0.7c-0.3,0.2-0.7,0.3-1.1,0.3h-3.3c-0.4,0-0.8-0.1-1.1-0.3
		s-0.6-0.4-0.8-0.7s-0.3-0.7-0.3-1V50c0-0.2,0.1-0.4,0.2-0.5c0.2-0.1,0.3-0.2,0.6-0.2h0.5c0.2,0,0.4,0.1,0.5,0.2
		c0.2,0.1,0.2,0.3,0.2,0.5v0.5c0,0.1,0,0.1,0.1,0.2c0.1,0,0.1,0.1,0.2,0.1h3.3c0.1,0,0.1,0,0.2-0.1c0-0.1,0.1-0.1,0.1-0.2v-1.4
		c0-0.1-0.1-0.2-0.2-0.2l-4.1-1.4c-0.5-0.1-0.8-0.4-1.1-0.8c-0.3-0.4-0.4-0.8-0.4-1.2v-1.4c0-0.4,0.1-0.7,0.3-1s0.5-0.6,0.8-0.7
		c0.4-0.2,0.7-0.3,1.1-0.3h3.3c0.4,0,0.8,0.1,1.1,0.3s0.6,0.4,0.8,0.7s0.3,0.7,0.3,1v0.4c0,0.2-0.1,0.4-0.2,0.5
		c-0.1,0.1-0.3,0.2-0.5,0.2h-0.5c-0.2,0-0.4-0.1-0.6-0.2c-0.1-0.1-0.2-0.3-0.2-0.5v-0.4c0-0.1-0.1-0.2-0.2-0.2h-3.3
		c-0.1,0-0.1,0-0.2,0.1c0,0-0.1,0.1-0.1,0.2v1.4c0,0.1,0.1,0.2,0.2,0.2l4.1,1.4c0.4,0.1,0.8,0.4,1.1,0.8c0.3,0.4,0.4,0.8,0.4,1.2
		v1.3H147.2z"/>
	<path class="st0" d="M156,51.8c0,0.2-0.1,0.4-0.2,0.5c-0.1,0.1-0.3,0.2-0.5,0.2h-5.8c-0.2,0-0.4-0.1-0.5-0.2
		c-0.1-0.1-0.2-0.3-0.2-0.5v-9.1c0-0.2,0.1-0.4,0.2-0.5c0.2-0.1,0.3-0.2,0.5-0.2h5.8c0.2,0,0.4,0.1,0.5,0.2c0.2,0.1,0.2,0.3,0.2,0.5
		v0.4c0,0.2-0.1,0.4-0.2,0.5c-0.1,0.1-0.3,0.2-0.5,0.2h-4.4c-0.1,0-0.2,0.1-0.2,0.2v2.1c0,0.1,0.1,0.2,0.2,0.2h3.8
		c0.2,0,0.4,0.1,0.6,0.2c0.1,0.1,0.2,0.3,0.2,0.5v0.4c0,0.2-0.1,0.4-0.2,0.5c-0.1,0.1-0.3,0.2-0.6,0.2h-3.8c-0.1,0-0.2,0.1-0.2,0.2
		v2.1c0,0.1,0.1,0.2,0.2,0.2h4.4c0.2,0,0.4,0.1,0.5,0.2c0.2,0.1,0.2,0.3,0.2,0.5V51.8z"/>
	<path class="st0" d="M164.9,50.5c0,0.4-0.1,0.7-0.3,1s-0.5,0.6-0.8,0.7c-0.3,0.2-0.7,0.3-1.1,0.3h-3c-0.4,0-0.8-0.1-1.1-0.3
		s-0.6-0.4-0.8-0.7s-0.3-0.7-0.3-1v-6.4c0-0.4,0.1-0.7,0.3-1s0.5-0.6,0.8-0.7c0.4-0.2,0.7-0.3,1.1-0.3h3c0.4,0,0.8,0.1,1.1,0.3
		s0.6,0.4,0.8,0.7s0.3,0.7,0.3,1v0.4c0,0.2-0.1,0.4-0.2,0.5c-0.1,0.1-0.3,0.2-0.6,0.2h-0.5c-0.2,0-0.4-0.1-0.6-0.2
		c-0.1-0.1-0.2-0.3-0.2-0.5v-0.4c0-0.1-0.1-0.2-0.2-0.2h-3c-0.1,0-0.2,0.1-0.2,0.2v6.4c0,0.1,0,0.1,0.1,0.2c0,0,0.1,0.1,0.2,0.1h3
		c0.1,0,0.1,0,0.2-0.1c0-0.1,0.1-0.1,0.1-0.2V50c0-0.2,0.1-0.4,0.2-0.5c0.2-0.1,0.3-0.2,0.6-0.2h0.5c0.2,0,0.4,0.1,0.6,0.2
		c0.1,0.1,0.2,0.3,0.2,0.5v0.5H164.9z"/>
	<path class="st0" d="M173.8,50.5c0,0.4-0.1,0.7-0.3,1s-0.5,0.6-0.8,0.7c-0.3,0.2-0.7,0.3-1.1,0.3h-3c-0.4,0-0.8-0.1-1.1-0.3
		s-0.6-0.4-0.8-0.7s-0.3-0.7-0.3-1v-7.7c0-0.2,0.1-0.4,0.2-0.5c0.2-0.1,0.3-0.2,0.6-0.2h0.5c0.2,0,0.4,0.1,0.5,0.2
		c0.2,0.1,0.2,0.3,0.2,0.5v7.7c0,0.1,0,0.1,0.1,0.2c0,0,0.1,0.1,0.2,0.1h3c0.1,0,0.1,0,0.2-0.1c0-0.1,0.1-0.1,0.1-0.2v-7.7
		c0-0.2,0.1-0.4,0.2-0.5c0.2-0.1,0.3-0.2,0.6-0.2h0.5c0.2,0,0.4,0.1,0.6,0.2c0.1,0.1,0.2,0.3,0.2,0.5v7.7H173.8z"/>
	<path class="st0" d="M182.8,51.6c0.1,0.2,0.1,0.5-0.1,0.7c-0.2,0.2-0.4,0.3-0.6,0.3h-0.5c-0.1,0-0.3,0-0.4-0.1
		c-0.1-0.1-0.2-0.2-0.3-0.3l-1.6-3.5c-0.1-0.1-0.2-0.2-0.3-0.2h-1.6c-0.1,0-0.2,0.1-0.2,0.2V52c0,0.2-0.1,0.4-0.2,0.5
		c-0.1,0.1-0.3,0.2-0.5,0.2H176c-0.2,0-0.4-0.1-0.5-0.2c-0.1-0.1-0.2-0.3-0.2-0.5v-9.1c0-0.2,0.1-0.4,0.2-0.5
		c0.1-0.1,0.3-0.2,0.5-0.2h4.6c0.4,0,0.8,0.1,1.1,0.3s0.6,0.4,0.8,0.7s0.3,0.7,0.3,1v2.3c0,0.4-0.1,0.8-0.4,1.1
		c-0.2,0.3-0.5,0.6-0.9,0.7c0,0-0.1,0-0.1,0.1s0,0.1,0,0.2L182.8,51.6z M180.8,46.4v-2.3c0-0.1-0.1-0.2-0.2-0.2h-3.1
		c-0.1,0-0.2,0.1-0.2,0.2v2.3c0,0.1,0.1,0.2,0.2,0.2h3.1C180.7,46.6,180.8,46.5,180.8,46.4z"/>
	<path class="st0" d="M186.3,51.8c0,0.2-0.1,0.4-0.2,0.5c-0.1,0.1-0.3,0.2-0.5,0.2h-0.5c-0.2,0-0.4-0.1-0.6-0.2
		c-0.1-0.1-0.2-0.3-0.2-0.5v-9.1c0-0.2,0.1-0.4,0.2-0.5c0.2-0.1,0.3-0.2,0.6-0.2h0.5c0.2,0,0.4,0.1,0.5,0.2c0.2,0.1,0.2,0.3,0.2,0.5
		V51.8z"/>
	<path class="st0" d="M195.2,43.2c0,0.2-0.1,0.4-0.2,0.5c-0.1,0.1-0.3,0.2-0.6,0.2h-1.8c-0.1,0-0.2,0.1-0.2,0.2v7.7
		c0,0.2-0.1,0.4-0.2,0.5c-0.1,0.1-0.3,0.2-0.5,0.2h-0.4c-0.2,0-0.4-0.1-0.6-0.2c-0.1-0.1-0.2-0.3-0.2-0.5v-7.7
		c0-0.1-0.1-0.2-0.2-0.2h-1.8c-0.2,0-0.4-0.1-0.6-0.2c-0.1-0.1-0.2-0.3-0.2-0.5v-0.4c0-0.2,0.1-0.4,0.2-0.5c0.2-0.1,0.3-0.2,0.6-0.2
		h6c0.2,0,0.4,0.1,0.6,0.2c0.1,0.1,0.2,0.3,0.2,0.5v0.4H195.2z"/>
	<path class="st0" d="M205.2,42.4c0.1,0.2,0.1,0.5,0,0.7l-3.2,4.7c0,0.1-0.1,0.1-0.1,0.3v3.7c0,0.2-0.1,0.4-0.2,0.5
		c-0.1,0.1-0.3,0.2-0.5,0.2h-0.5c-0.2,0-0.4-0.1-0.6-0.2c-0.1-0.1-0.2-0.3-0.2-0.5v-3.7c0-0.1,0-0.2-0.1-0.2l-3.2-4.7
		c-0.1-0.3-0.2-0.5,0-0.7c0.1-0.2,0.4-0.4,0.7-0.4h0.5c0.3,0,0.5,0.1,0.7,0.3c0.1,0.2,0.3,0.5,0.6,0.8c0.2,0.4,0.5,0.8,0.8,1.3
		c0.3,0.4,0.6,0.9,0.9,1.3l0.1,0.1c0.1,0,0.1,0,0.1-0.1c0.3-0.5,0.6-0.9,0.9-1.3c0.3-0.4,0.6-0.8,0.8-1.2s0.4-0.6,0.6-0.8
		c0.1-0.2,0.4-0.3,0.7-0.3h0.5C204.9,42,205.1,42.2,205.2,42.4z"/>
	<path class="st0" d="M218.4,50.5c0,0.4-0.1,0.7-0.3,1s-0.5,0.6-0.8,0.7c-0.3,0.2-0.7,0.3-1.1,0.3h-3.3c-0.4,0-0.8-0.1-1.1-0.3
		s-0.6-0.4-0.8-0.7s-0.3-0.7-0.3-1V50c0-0.2,0.1-0.4,0.2-0.5c0.2-0.1,0.3-0.2,0.6-0.2h0.5c0.2,0,0.4,0.1,0.5,0.2
		c0.2,0.1,0.2,0.3,0.2,0.5v0.5c0,0.1,0,0.1,0.1,0.2c0.1,0,0.1,0.1,0.2,0.1h3.3c0.1,0,0.1,0,0.2-0.1c0-0.1,0.1-0.1,0.1-0.2v-1.4
		c0-0.1-0.1-0.2-0.2-0.2l-4.1-1.4c-0.5-0.1-0.8-0.4-1.1-0.8c-0.3-0.4-0.4-0.8-0.4-1.2v-1.4c0-0.4,0.1-0.7,0.3-1s0.5-0.6,0.8-0.7
		c0.4-0.2,0.7-0.3,1.1-0.3h3.3c0.4,0,0.8,0.1,1.1,0.3s0.6,0.4,0.8,0.7s0.3,0.7,0.3,1v0.4c0,0.2-0.1,0.4-0.2,0.5
		c-0.1,0.1-0.3,0.2-0.5,0.2h-0.5c-0.2,0-0.4-0.1-0.6-0.2c-0.1-0.1-0.2-0.3-0.2-0.5v-0.4c0-0.1-0.1-0.2-0.2-0.2H213
		c-0.1,0-0.1,0-0.2,0.1c0,0-0.1,0.1-0.1,0.2v1.4c0,0.1,0.1,0.2,0.2,0.2l4.1,1.4c0.4,0.1,0.8,0.4,1.1,0.8c0.3,0.4,0.4,0.8,0.4,1.2
		v1.3H218.4z"/>
	<path class="st0" d="M236.7,50.5c0,0.4-0.1,0.7-0.3,1s-0.5,0.6-0.8,0.7c-0.3,0.2-0.7,0.3-1.1,0.3h-3.3c-0.4,0-0.8-0.1-1.1-0.3
		s-0.6-0.4-0.8-0.7s-0.3-0.7-0.3-1V50c0-0.2,0.1-0.4,0.2-0.5c0.2-0.1,0.3-0.2,0.6-0.2h0.5c0.2,0,0.4,0.1,0.5,0.2
		c0.2,0.1,0.2,0.3,0.2,0.5v0.5c0,0.1,0,0.1,0.1,0.2c0.1,0,0.1,0.1,0.2,0.1h3.3c0.1,0,0.1,0,0.2-0.1c0-0.1,0.1-0.1,0.1-0.2v-1.4
		c0-0.1-0.1-0.2-0.2-0.2l-4.1-1.4c-0.5-0.1-0.8-0.4-1.1-0.8c-0.3-0.4-0.4-0.8-0.4-1.2v-1.4c0-0.4,0.1-0.7,0.3-1s0.5-0.6,0.8-0.7
		c0.4-0.2,0.7-0.3,1.1-0.3h3.3c0.4,0,0.8,0.1,1.1,0.3s0.6,0.4,0.8,0.7s0.3,0.7,0.3,1v0.4c0,0.2-0.1,0.4-0.2,0.5
		c-0.1,0.1-0.3,0.2-0.5,0.2h-0.6c-0.2,0-0.4-0.1-0.6-0.2c-0.1-0.1-0.2-0.3-0.2-0.5v-0.4c0-0.1-0.1-0.2-0.2-0.2h-3.3
		c-0.1,0-0.1,0-0.2,0.1c0,0-0.1,0.1-0.1,0.2v1.4c0,0.1,0.1,0.2,0.2,0.2l4.1,1.4c0.4,0.1,0.8,0.4,1.1,0.8c0.3,0.4,0.4,0.8,0.4,1.2
		V50.5z"/>
	<path class="st0" d="M245.7,43.2c0,0.2-0.1,0.4-0.2,0.5c-0.1,0.1-0.3,0.2-0.6,0.2h-1.8c-0.1,0-0.2,0.1-0.2,0.2v7.7
		c0,0.2-0.1,0.4-0.2,0.5c-0.1,0.1-0.3,0.2-0.5,0.2h-0.4c-0.2,0-0.4-0.1-0.6-0.2c-0.1-0.1-0.2-0.3-0.2-0.5v-7.7
		c0-0.1-0.1-0.2-0.2-0.2H239c-0.2,0-0.4-0.1-0.6-0.2c-0.1-0.1-0.2-0.3-0.2-0.5v-0.4c0-0.2,0.1-0.4,0.2-0.5c0.2-0.1,0.3-0.2,0.6-0.2
		h6c0.2,0,0.4,0.1,0.6,0.2c0.1,0.1,0.2,0.3,0.2,0.5v0.4H245.7z"/>
	<path class="st0" d="M254.4,51.8c0,0.2-0.1,0.4-0.2,0.5c-0.1,0.1-0.3,0.2-0.5,0.2h-5.8c-0.2,0-0.4-0.1-0.5-0.2
		c-0.1-0.1-0.2-0.3-0.2-0.5v-9.1c0-0.2,0.1-0.4,0.2-0.5c0.2-0.1,0.3-0.2,0.5-0.2h5.8c0.2,0,0.4,0.1,0.5,0.2c0.2,0.1,0.2,0.3,0.2,0.5
		v0.4c0,0.2-0.1,0.4-0.2,0.5c-0.1,0.1-0.3,0.2-0.5,0.2h-4.4c-0.1,0-0.2,0.1-0.2,0.2v2.1c0,0.1,0.1,0.2,0.2,0.2h3.8
		c0.2,0,0.4,0.1,0.6,0.2c0.1,0.1,0.2,0.3,0.2,0.5v0.4c0,0.2-0.1,0.4-0.2,0.5c-0.1,0.1-0.3,0.2-0.6,0.2h-3.8c-0.1,0-0.2,0.1-0.2,0.2
		v2.1c0,0.1,0.1,0.2,0.2,0.2h4.4c0.2,0,0.4,0.1,0.5,0.2c0.2,0.1,0.2,0.3,0.2,0.5V51.8z"/>
	<path class="st0" d="M264.7,51.8c0,0.2-0.1,0.4-0.2,0.5s-0.3,0.2-0.6,0.2h-0.4c-0.2,0-0.4-0.1-0.6-0.2c-0.1-0.1-0.2-0.3-0.2-0.5
		v-4.7c0,0,0-0.1-0.1-0.1h-0.1l-1.6,3.1c0,0.1-0.1,0.2-0.2,0.2c-0.1,0.1-0.2,0.1-0.3,0.2c-0.1,0-0.1,0-0.1,0c-0.4,0-0.6-0.1-0.7-0.4
		L258,47c0,0,0,0-0.1,0c0,0-0.1,0-0.1,0.1v4.7c0,0.2-0.1,0.4-0.2,0.5c-0.1,0.1-0.3,0.2-0.5,0.2h-0.6c-0.2,0-0.4-0.1-0.6-0.2
		c-0.1-0.1-0.2-0.3-0.2-0.5v-9.1c0-0.2,0.1-0.4,0.2-0.5c0.2-0.1,0.3-0.2,0.6-0.2h0.5c0.3,0,0.5,0.1,0.7,0.4c0.1,0.1,0.2,0.3,0.3,0.7
		c0.2,0.3,0.4,0.7,0.6,1.1c0.2,0.4,0.5,0.9,0.7,1.4c0.3,0.5,0.5,1,0.7,1.4l0.1,0.1c0,0,0.1,0,0.1-0.1l2.4-4.6
		c0.1-0.3,0.4-0.4,0.7-0.4h0.5c0.2,0,0.4,0.1,0.6,0.2c0.1,0.1,0.2,0.3,0.2,0.5v9.1H264.7z"/>
	<g>
		<path class="st0" d="M47.8,5.6c0,5.1-0.4,18.5-5.6,28C38.6,40,30.8,45.6,26.8,48.1c-4.2-2.5-12-7.9-15.6-14.6
			C6,24.1,5.6,10.7,5.6,5.6h21H47.8 M50,0H26.6H3.4L0.1,3.2c0,0-1.1,19.7,6.1,33.1C12,47,26.5,54.6,26.5,54.6S41.1,47,46.8,36.3
			C54,22.9,52.9,3.2,52.9,3.2L50,0L50,0z"/>
		<path class="st0" d="M41.9,11.1c-0.4,6.1-1.7,14-4.7,19.7c-2.1,4-6.8,7.9-10.6,10.6c-3.9-2.8-8.5-6.5-10.6-10.6
			c-3.1-5.7-4.3-13.6-4.7-19.7h15.3L41.9,11.1"/>
	</g>
</g>
</svg>
