<?xml version="1.0" encoding="utf-8"?>
<!-- Generator: Adobe Illustrator 24.1.2, SVG Export Plug-In . SVG Version: 6.00 Build 0)  -->
<svg version="1.1" id="Layer_1" xmlns="http://www.w3.org/2000/svg" xmlns:xlink="http://www.w3.org/1999/xlink" x="0px" y="0px"
	 viewBox="0 0 264.7 55" style="enable-background:new 0 0 264.7 55;" xml:space="preserve">
<style type="text/css">
	.st0{fill:none;stroke:#000000;stroke-width:0.75;stroke-miterlimit:10;}
</style>
<g>
	<path d="M227.8,37.8c0.1,0.2,0.1,0.5,0,0.7l-3.2,4.8c0,0.1-0.1,0.1-0.1,0.3v3.8c0,0.2-0.1,0.4-0.2,0.5c-0.1,0.1-0.3,0.2-0.5,0.2
		h-0.5c-0.2,0-0.4-0.1-0.6-0.2c-0.1-0.1-0.2-0.3-0.2-0.5v-3.8c0-0.1,0-0.2-0.1-0.3l-3.2-4.8c-0.1-0.3-0.2-0.5,0-0.7
		c0.1-0.3,0.4-0.4,0.7-0.4h0.5c0.3,0,0.5,0.1,0.7,0.3c0.1,0.2,0.3,0.5,0.6,0.9c0.2,0.4,0.5,0.8,0.8,1.3s0.6,0.9,0.9,1.3l0.1,0.1
		c0.1,0,0.1,0,0.1-0.1c0.3-0.5,0.6-0.9,0.9-1.4c0.3-0.5,0.6-0.9,0.8-1.2c0.2-0.4,0.4-0.7,0.6-0.9c0.1-0.2,0.4-0.3,0.7-0.3h0.5
		C227.4,37.4,227.7,37.5,227.8,37.8z"/>
	<path d="M67.4,38.7c0,0.2-0.1,0.4-0.2,0.5s-0.3,0.2-0.6,0.2h-1.8c-0.1,0-0.2,0.1-0.2,0.2v7.7c0,0.2-0.1,0.4-0.2,0.5
		S64.1,48,63.9,48h-0.4c-0.2,0-0.4-0.1-0.6-0.2c-0.1-0.1-0.2-0.3-0.2-0.5v-7.7c0-0.1-0.1-0.2-0.2-0.2h-1.8c-0.2,0-0.4-0.1-0.6-0.2
		c-0.1-0.1-0.2-0.3-0.2-0.5v-0.4c0-0.2,0.1-0.4,0.2-0.5c0.2-0.1,0.3-0.2,0.6-0.2h6c0.2,0,0.4,0.1,0.6,0.2c0.1,0.1,0.2,0.3,0.2,0.5
		L67.4,38.7L67.4,38.7z"/>
	<path d="M76.1,47.3c0,0.2-0.1,0.4-0.2,0.5S75.6,48,75.4,48h-5.9c-0.2,0-0.4-0.1-0.5-0.2c-0.1-0.1-0.2-0.3-0.2-0.5v-9.1
		c0-0.2,0.1-0.4,0.2-0.5c0.2-0.1,0.3-0.2,0.5-0.2h5.8c0.2,0,0.4,0.1,0.5,0.2C76,37.8,76,38,76,38.2v0.4c0,0.2-0.1,0.4-0.2,0.5
		s-0.3,0.2-0.5,0.2h-4.4c-0.1,0-0.2,0.1-0.2,0.2v2.1c0,0.1,0.1,0.2,0.2,0.2h3.8c0.2,0,0.4,0.1,0.6,0.2c0.1,0.1,0.2,0.3,0.2,0.5v0.4
		c0,0.2-0.1,0.4-0.2,0.5s-0.3,0.2-0.6,0.2h-3.8c-0.1,0-0.2,0.1-0.2,0.2v2.1c0,0.1,0.1,0.2,0.2,0.2h4.4c0.2,0,0.4,0.1,0.5,0.2
		c0.2,0.1,0.2,0.3,0.2,0.5L76.1,47.3C76,47.3,76.1,47.3,76.1,47.3z"/>
	<path d="M85,46c0,0.4-0.1,0.7-0.3,1c-0.2,0.3-0.5,0.6-0.8,0.7c-0.3,0.2-0.7,0.3-1.1,0.3h-3c-0.4,0-0.8-0.1-1.1-0.3
		s-0.6-0.4-0.8-0.7c-0.2-0.3-0.3-0.7-0.3-1v-6.4c0-0.4,0.1-0.7,0.3-1s0.5-0.6,0.8-0.7c0.4-0.2,0.7-0.3,1.1-0.3h3
		c0.4,0,0.8,0.1,1.1,0.3c0.3,0.2,0.6,0.4,0.8,0.7s0.3,0.7,0.3,1V40c0,0.2-0.1,0.4-0.2,0.5s-0.3,0.2-0.6,0.2h-0.5
		c-0.2,0-0.4-0.1-0.6-0.2c-0.1-0.1-0.2-0.3-0.2-0.5v-0.4c0-0.1-0.1-0.2-0.2-0.2h-3c-0.1,0-0.2,0.1-0.2,0.2V46c0,0.1,0,0.1,0.1,0.2
		c0,0,0.1,0.1,0.2,0.1h3c0.1,0,0.1,0,0.2-0.1c0-0.1,0.1-0.1,0.1-0.2v-0.5c0-0.2,0.1-0.4,0.2-0.5c0.2-0.1,0.3-0.2,0.6-0.2h0.5
		c0.2,0,0.4,0.1,0.6,0.2c0.1,0.1,0.2,0.3,0.2,0.5V46H85z"/>
	<path d="M93.9,47.3c0,0.2-0.1,0.4-0.2,0.5S93.4,48,93.1,48h-0.5c-0.2,0-0.4-0.1-0.6-0.2c-0.1-0.1-0.2-0.3-0.2-0.5v-3.4
		c0-0.1-0.1-0.2-0.2-0.2h-3c-0.1,0-0.2,0.1-0.2,0.2v3.4c0,0.2-0.1,0.4-0.2,0.5S87.9,48,87.7,48h-0.5c-0.2,0-0.4-0.1-0.6-0.2
		c-0.1-0.1-0.2-0.3-0.2-0.5v-9.1c0-0.2,0.1-0.4,0.2-0.5c0.2-0.1,0.3-0.2,0.6-0.2h0.5c0.2,0,0.4,0.1,0.5,0.2c0.2,0.1,0.2,0.3,0.2,0.5
		v3.4c0,0.1,0.1,0.2,0.2,0.2h3c0.1,0,0.2-0.1,0.2-0.2v-3.4c0-0.2,0.1-0.4,0.2-0.5c0.2-0.1,0.3-0.2,0.6-0.2h0.5
		c0.2,0,0.4,0.1,0.6,0.2c0.1,0.1,0.2,0.3,0.2,0.5V47.3z"/>
	<path d="M103,47.3c0,0.2-0.1,0.4-0.2,0.5s-0.3,0.2-0.5,0.2h-0.5c-0.3,0-0.5-0.1-0.7-0.4l-3.6-5.7c0,0-0.1-0.1-0.1,0
		c0,0-0.1,0-0.1,0.1v5.3c0,0.2-0.1,0.4-0.2,0.5S96.8,48,96.6,48h-0.5c-0.2,0-0.4-0.1-0.6-0.2c-0.1-0.1-0.2-0.3-0.2-0.5v-9.1
		c0-0.2,0.1-0.4,0.2-0.5c0.2-0.1,0.3-0.2,0.6-0.2h0.5c0.3,0,0.5,0.1,0.7,0.4l3.6,5.7c0,0,0.1,0.1,0.1,0c0,0,0.1,0,0.1-0.1v-5.3
		c0-0.2,0.1-0.4,0.2-0.5c0.2-0.1,0.3-0.2,0.6-0.2h0.5c0.2,0,0.4,0.1,0.5,0.2c0.2,0.1,0.2,0.3,0.2,0.5L103,47.3L103,47.3z"/>
	<path d="M106.4,47.3c0,0.2-0.1,0.4-0.2,0.5s-0.3,0.2-0.5,0.2h-0.5c-0.2,0-0.4-0.1-0.6-0.2c-0.1-0.1-0.2-0.3-0.2-0.5v-9.1
		c0-0.2,0.1-0.4,0.2-0.5c0.2-0.1,0.3-0.2,0.6-0.2h0.5c0.2,0,0.4,0.1,0.5,0.2c0.2,0.1,0.2,0.3,0.2,0.5V47.3z"/>
	<path d="M115.4,46c0,0.4-0.1,0.7-0.3,1s-0.5,0.6-0.8,0.7c-0.3,0.2-0.7,0.3-1.1,0.3h-3c-0.4,0-0.8-0.1-1.1-0.3
		c-0.3-0.2-0.6-0.4-0.8-0.7s-0.3-0.7-0.3-1v-6.4c0-0.4,0.1-0.7,0.3-1c0.2-0.3,0.5-0.6,0.8-0.7c0.4-0.2,0.7-0.3,1.1-0.3h3
		c0.4,0,0.8,0.1,1.1,0.3s0.6,0.4,0.8,0.7c0.2,0.3,0.3,0.7,0.3,1V40c0,0.2-0.1,0.4-0.2,0.5s-0.3,0.2-0.6,0.2h-0.5
		c-0.2,0-0.4-0.1-0.6-0.2c-0.1-0.1-0.2-0.3-0.2-0.5v-0.4c0-0.1-0.1-0.2-0.2-0.2h-3c-0.1,0-0.2,0.1-0.2,0.2V46c0,0.1,0,0.1,0.1,0.2
		c0,0,0.1,0.1,0.2,0.1h3c0.1,0,0.1,0,0.2-0.1c0-0.1,0.1-0.1,0.1-0.2v-0.5c0-0.2,0.1-0.4,0.2-0.5c0.2-0.1,0.3-0.2,0.6-0.2h0.5
		c0.2,0,0.4,0.1,0.6,0.2c0.1,0.1,0.2,0.3,0.2,0.5V46H115.4z"/>
	<path d="M125.5,47.1c0.1,0.2,0,0.5-0.1,0.7s-0.4,0.3-0.6,0.3h-0.5c-0.2,0-0.3,0-0.5-0.1c-0.1-0.1-0.2-0.2-0.3-0.3l-0.6-1.8
		c0-0.1-0.1-0.2-0.3-0.2h-2.9c-0.1,0-0.2,0.1-0.3,0.2l-0.6,1.8c-0.1,0.1-0.2,0.2-0.3,0.3s-0.3,0.1-0.5,0.1h-0.5
		c-0.3,0-0.5-0.1-0.6-0.3c-0.2-0.2-0.2-0.4-0.1-0.7l3.3-9.1c0.1-0.1,0.1-0.3,0.3-0.3c0.1-0.1,0.3-0.1,0.4-0.1h0.7
		c0.2,0,0.3,0,0.4,0.1s0.2,0.2,0.3,0.3L125.5,47.1z M122.1,43.5l-0.8-2.4c-0.1-0.1-0.1-0.1-0.2,0l-0.8,2.4c0,0.1,0,0.1,0,0.1
		l0.1,0.1h1.6C122.1,43.7,122.1,43.7,122.1,43.5C122.1,43.6,122.1,43.6,122.1,43.5z"/>
	<path d="M134.2,47.3c0,0.2-0.1,0.4-0.2,0.5c-0.1,0.1-0.3,0.2-0.5,0.2h-5.8c-0.2,0-0.4-0.1-0.5-0.2c-0.1-0.1-0.2-0.3-0.2-0.5v-9.1
		c0-0.2,0.1-0.4,0.2-0.5c0.2-0.1,0.3-0.2,0.5-0.2h0.5c0.2,0,0.4,0.1,0.5,0.2c0.2,0.1,0.2,0.3,0.2,0.5v7.7c0,0.1,0.1,0.2,0.2,0.2h4.4
		c0.2,0,0.4,0.1,0.5,0.2c0.2,0.1,0.2,0.3,0.2,0.5C134.2,46.8,134.2,47.3,134.2,47.3z"/>
	<path d="M147.2,46c0,0.4-0.1,0.7-0.3,1s-0.5,0.6-0.8,0.7c-0.3,0.2-0.7,0.3-1.1,0.3h-3.3c-0.4,0-0.8-0.1-1.1-0.3s-0.6-0.4-0.8-0.7
		s-0.3-0.7-0.3-1v-0.5c0-0.2,0.1-0.4,0.2-0.5c0.2-0.1,0.3-0.2,0.6-0.2h0.5c0.2,0,0.4,0.1,0.5,0.2c0.2,0.1,0.2,0.3,0.2,0.5V46
		c0,0.1,0,0.1,0.1,0.2c0.1,0,0.1,0.1,0.2,0.1h3.3c0.1,0,0.1,0,0.2-0.1c0-0.1,0.1-0.1,0.1-0.2v-1.4c0-0.1-0.1-0.2-0.2-0.2l-4.1-1.4
		c-0.5-0.1-0.8-0.4-1.1-0.8c-0.3-0.4-0.4-0.8-0.4-1.2v-1.4c0-0.4,0.1-0.7,0.3-1s0.5-0.6,0.8-0.7c0.4-0.2,0.7-0.3,1.1-0.3h3.3
		c0.4,0,0.8,0.1,1.1,0.3s0.6,0.4,0.8,0.7s0.3,0.7,0.3,1V40c0,0.2-0.1,0.4-0.2,0.5c-0.1,0.1-0.3,0.2-0.5,0.2h-0.5
		c-0.2,0-0.4-0.1-0.6-0.2c-0.1-0.1-0.2-0.3-0.2-0.5v-0.4c0-0.1-0.1-0.2-0.2-0.2h-3.3c-0.1,0-0.1,0-0.2,0.1c0,0-0.1,0.1-0.1,0.2v1.4
		c0,0.1,0.1,0.2,0.2,0.2l4.1,1.4c0.4,0.1,0.8,0.4,1.1,0.8c0.3,0.4,0.4,0.8,0.4,1.2V46H147.2z"/>
	<path d="M156,47.3c0,0.2-0.1,0.4-0.2,0.5c-0.1,0.1-0.3,0.2-0.5,0.2h-5.8c-0.2,0-0.4-0.1-0.5-0.2c-0.1-0.1-0.2-0.3-0.2-0.5v-9.1
		c0-0.2,0.1-0.4,0.2-0.5c0.2-0.1,0.3-0.2,0.5-0.2h5.8c0.2,0,0.4,0.1,0.5,0.2c0.2,0.1,0.2,0.3,0.2,0.5v0.4c0,0.2-0.1,0.4-0.2,0.5
		c-0.1,0.1-0.3,0.2-0.5,0.2h-4.4c-0.1,0-0.2,0.1-0.2,0.2v2.1c0,0.1,0.1,0.2,0.2,0.2h3.8c0.2,0,0.4,0.1,0.6,0.2
		c0.1,0.1,0.2,0.3,0.2,0.5v0.4c0,0.2-0.1,0.4-0.2,0.5c-0.1,0.1-0.3,0.2-0.6,0.2h-3.8c-0.1,0-0.2,0.1-0.2,0.2v2.1
		c0,0.1,0.1,0.2,0.2,0.2h4.4c0.2,0,0.4,0.1,0.5,0.2c0.2,0.1,0.2,0.3,0.2,0.5V47.3z"/>
	<path d="M164.9,46c0,0.4-0.1,0.7-0.3,1s-0.5,0.6-0.8,0.7c-0.3,0.2-0.7,0.3-1.1,0.3h-3c-0.4,0-0.8-0.1-1.1-0.3s-0.6-0.4-0.8-0.7
		s-0.3-0.7-0.3-1v-6.4c0-0.4,0.1-0.7,0.3-1s0.5-0.6,0.8-0.7c0.4-0.2,0.7-0.3,1.1-0.3h3c0.4,0,0.8,0.1,1.1,0.3s0.6,0.4,0.8,0.7
		s0.3,0.7,0.3,1V40c0,0.2-0.1,0.4-0.2,0.5c-0.1,0.1-0.3,0.2-0.6,0.2h-0.5c-0.2,0-0.4-0.1-0.6-0.2c-0.1-0.1-0.2-0.3-0.2-0.5v-0.4
		c0-0.1-0.1-0.2-0.2-0.2h-3c-0.1,0-0.2,0.1-0.2,0.2V46c0,0.1,0,0.1,0.1,0.2c0,0,0.1,0.1,0.2,0.1h3c0.1,0,0.1,0,0.2-0.1
		c0-0.1,0.1-0.1,0.1-0.2v-0.5c0-0.2,0.1-0.4,0.2-0.5c0.2-0.1,0.3-0.2,0.6-0.2h0.5c0.2,0,0.4,0.1,0.6,0.2c0.1,0.1,0.2,0.3,0.2,0.5V46
		H164.9z"/>
	<path d="M173.8,46c0,0.4-0.1,0.7-0.3,1s-0.5,0.6-0.8,0.7c-0.3,0.2-0.7,0.3-1.1,0.3h-3c-0.4,0-0.8-0.1-1.1-0.3s-0.6-0.4-0.8-0.7
		s-0.3-0.7-0.3-1v-7.7c0-0.2,0.1-0.4,0.2-0.5c0.2-0.1,0.3-0.2,0.6-0.2h0.5c0.2,0,0.4,0.1,0.5,0.2c0.2,0.1,0.2,0.3,0.2,0.5V46
		c0,0.1,0,0.1,0.1,0.2c0,0,0.1,0.1,0.2,0.1h3c0.1,0,0.1,0,0.2-0.1c0-0.1,0.1-0.1,0.1-0.2v-7.7c0-0.2,0.1-0.4,0.2-0.5
		c0.2-0.1,0.3-0.2,0.6-0.2h0.5c0.2,0,0.4,0.1,0.6,0.2c0.1,0.1,0.2,0.3,0.2,0.5V46H173.8z"/>
	<path d="M182.8,47.1c0.1,0.2,0.1,0.5-0.1,0.7c-0.2,0.2-0.4,0.3-0.6,0.3h-0.5c-0.1,0-0.3,0-0.4-0.1c-0.1-0.1-0.2-0.2-0.3-0.3
		l-1.6-3.5c-0.1-0.1-0.2-0.2-0.3-0.2h-1.6c-0.1,0-0.2,0.1-0.2,0.2v3.2c0,0.2-0.1,0.4-0.2,0.5c-0.1,0.1-0.3,0.2-0.5,0.2H176
		c-0.2,0-0.4-0.1-0.5-0.2c-0.1-0.1-0.2-0.3-0.2-0.5v-9.1c0-0.2,0.1-0.4,0.2-0.5c0.1-0.1,0.3-0.2,0.5-0.2h4.6c0.4,0,0.8,0.1,1.1,0.3
		s0.6,0.4,0.8,0.7s0.3,0.7,0.3,1v2.3c0,0.4-0.1,0.8-0.4,1.1c-0.2,0.3-0.5,0.6-0.9,0.7c0,0-0.1,0-0.1,0.1s0,0.1,0,0.2L182.8,47.1z
		 M180.8,41.9v-2.3c0-0.1-0.1-0.2-0.2-0.2h-3.1c-0.1,0-0.2,0.1-0.2,0.2v2.3c0,0.1,0.1,0.2,0.2,0.2h3.1
		C180.7,42.1,180.8,42,180.8,41.9z"/>
	<path d="M186.3,47.3c0,0.2-0.1,0.4-0.2,0.5c-0.1,0.1-0.3,0.2-0.5,0.2h-0.5c-0.2,0-0.4-0.1-0.6-0.2c-0.1-0.1-0.2-0.3-0.2-0.5v-9.1
		c0-0.2,0.1-0.4,0.2-0.5c0.2-0.1,0.3-0.2,0.6-0.2h0.5c0.2,0,0.4,0.1,0.5,0.2c0.2,0.1,0.2,0.3,0.2,0.5V47.3z"/>
	<path d="M195.2,38.7c0,0.2-0.1,0.4-0.2,0.5c-0.1,0.1-0.3,0.2-0.6,0.2h-1.8c-0.1,0-0.2,0.1-0.2,0.2v7.7c0,0.2-0.1,0.4-0.2,0.5
		c-0.1,0.1-0.3,0.2-0.5,0.2h-0.4c-0.2,0-0.4-0.1-0.6-0.2c-0.1-0.1-0.2-0.3-0.2-0.5v-7.7c0-0.1-0.1-0.2-0.2-0.2h-1.8
		c-0.2,0-0.4-0.1-0.6-0.2c-0.1-0.1-0.2-0.3-0.2-0.5v-0.4c0-0.2,0.1-0.4,0.2-0.5c0.2-0.1,0.3-0.2,0.6-0.2h6c0.2,0,0.4,0.1,0.6,0.2
		c0.1,0.1,0.2,0.3,0.2,0.5v0.4H195.2z"/>
	<path d="M205.2,37.9c0.1,0.2,0.1,0.5,0,0.7l-3.2,4.7c0,0.1-0.1,0.1-0.1,0.3v3.7c0,0.2-0.1,0.4-0.2,0.5c-0.1,0.1-0.3,0.2-0.5,0.2
		h-0.5c-0.2,0-0.4-0.1-0.6-0.2c-0.1-0.1-0.2-0.3-0.2-0.5v-3.7c0-0.1,0-0.2-0.1-0.2l-3.2-4.7c-0.1-0.3-0.2-0.5,0-0.7
		c0.1-0.2,0.4-0.4,0.7-0.4h0.5c0.3,0,0.5,0.1,0.7,0.3c0.1,0.2,0.3,0.5,0.6,0.8c0.2,0.4,0.5,0.8,0.8,1.3c0.3,0.4,0.6,0.9,0.9,1.3
		l0.1,0.1c0.1,0,0.1,0,0.1-0.1c0.3-0.5,0.6-0.9,0.9-1.3c0.3-0.4,0.6-0.8,0.8-1.2s0.4-0.6,0.6-0.8c0.1-0.2,0.4-0.3,0.7-0.3h0.5
		C204.9,37.5,205.1,37.7,205.2,37.9z"/>
	<path d="M218.4,46c0,0.4-0.1,0.7-0.3,1s-0.5,0.6-0.8,0.7c-0.3,0.2-0.7,0.3-1.1,0.3h-3.3c-0.4,0-0.8-0.1-1.1-0.3s-0.6-0.4-0.8-0.7
		s-0.3-0.7-0.3-1v-0.5c0-0.2,0.1-0.4,0.2-0.5c0.2-0.1,0.3-0.2,0.6-0.2h0.5c0.2,0,0.4,0.1,0.5,0.2c0.2,0.1,0.2,0.3,0.2,0.5V46
		c0,0.1,0,0.1,0.1,0.2c0.1,0,0.1,0.1,0.2,0.1h3.3c0.1,0,0.1,0,0.2-0.1c0-0.1,0.1-0.1,0.1-0.2v-1.4c0-0.1-0.1-0.2-0.2-0.2l-4.1-1.4
		c-0.5-0.1-0.8-0.4-1.1-0.8c-0.3-0.4-0.4-0.8-0.4-1.2v-1.4c0-0.4,0.1-0.7,0.3-1s0.5-0.6,0.8-0.7c0.4-0.2,0.7-0.3,1.1-0.3h3.3
		c0.4,0,0.8,0.1,1.1,0.3s0.6,0.4,0.8,0.7s0.3,0.7,0.3,1V40c0,0.2-0.1,0.4-0.2,0.5c-0.1,0.1-0.3,0.2-0.5,0.2h-0.5
		c-0.2,0-0.4-0.1-0.6-0.2c-0.1-0.1-0.2-0.3-0.2-0.5v-0.4c0-0.1-0.1-0.2-0.2-0.2H213c-0.1,0-0.1,0-0.2,0.1c0,0-0.1,0.1-0.1,0.2v1.4
		c0,0.1,0.1,0.2,0.2,0.2l4.1,1.4c0.4,0.1,0.8,0.4,1.1,0.8c0.3,0.4,0.4,0.8,0.4,1.2V46H218.4z"/>
	<path d="M236.7,46c0,0.4-0.1,0.7-0.3,1s-0.5,0.6-0.8,0.7c-0.3,0.2-0.7,0.3-1.1,0.3h-3.3c-0.4,0-0.8-0.1-1.1-0.3s-0.6-0.4-0.8-0.7
		s-0.3-0.7-0.3-1v-0.5c0-0.2,0.1-0.4,0.2-0.5c0.2-0.1,0.3-0.2,0.6-0.2h0.5c0.2,0,0.4,0.1,0.5,0.2c0.2,0.1,0.2,0.3,0.2,0.5V46
		c0,0.1,0,0.1,0.1,0.2c0.1,0,0.1,0.1,0.2,0.1h3.3c0.1,0,0.1,0,0.2-0.1c0-0.1,0.1-0.1,0.1-0.2v-1.4c0-0.1-0.1-0.2-0.2-0.2l-4.1-1.4
		c-0.5-0.1-0.8-0.4-1.1-0.8c-0.3-0.4-0.4-0.8-0.4-1.2v-1.4c0-0.4,0.1-0.7,0.3-1s0.5-0.6,0.8-0.7c0.4-0.2,0.7-0.3,1.1-0.3h3.3
		c0.4,0,0.8,0.1,1.1,0.3s0.6,0.4,0.8,0.7s0.3,0.7,0.3,1V40c0,0.2-0.1,0.4-0.2,0.5c-0.1,0.1-0.3,0.2-0.5,0.2h-0.6
		c-0.2,0-0.4-0.1-0.6-0.2c-0.1-0.1-0.2-0.3-0.2-0.5v-0.4c0-0.1-0.1-0.2-0.2-0.2h-3.3c-0.1,0-0.1,0-0.2,0.1c0,0-0.1,0.1-0.1,0.2v1.4
		c0,0.1,0.1,0.2,0.2,0.2l4.1,1.4c0.4,0.1,0.8,0.4,1.1,0.8c0.3,0.4,0.4,0.8,0.4,1.2V46z"/>
	<path d="M245.7,38.7c0,0.2-0.1,0.4-0.2,0.5c-0.1,0.1-0.3,0.2-0.6,0.2h-1.8c-0.1,0-0.2,0.1-0.2,0.2v7.7c0,0.2-0.1,0.4-0.2,0.5
		c-0.1,0.1-0.3,0.2-0.5,0.2h-0.4c-0.2,0-0.4-0.1-0.6-0.2c-0.1-0.1-0.2-0.3-0.2-0.5v-7.7c0-0.1-0.1-0.2-0.2-0.2H239
		c-0.2,0-0.4-0.1-0.6-0.2c-0.1-0.1-0.2-0.3-0.2-0.5v-0.4c0-0.2,0.1-0.4,0.2-0.5c0.2-0.1,0.3-0.2,0.6-0.2h6c0.2,0,0.4,0.1,0.6,0.2
		c0.1,0.1,0.2,0.3,0.2,0.5v0.4H245.7z"/>
	<path d="M254.4,47.3c0,0.2-0.1,0.4-0.2,0.5c-0.1,0.1-0.3,0.2-0.5,0.2h-5.8c-0.2,0-0.4-0.1-0.5-0.2c-0.1-0.1-0.2-0.3-0.2-0.5v-9.1
		c0-0.2,0.1-0.4,0.2-0.5c0.2-0.1,0.3-0.2,0.5-0.2h5.8c0.2,0,0.4,0.1,0.5,0.2c0.2,0.1,0.2,0.3,0.2,0.5v0.4c0,0.2-0.1,0.4-0.2,0.5
		c-0.1,0.1-0.3,0.2-0.5,0.2h-4.4c-0.1,0-0.2,0.1-0.2,0.2v2.1c0,0.1,0.1,0.2,0.2,0.2h3.8c0.2,0,0.4,0.1,0.6,0.2
		c0.1,0.1,0.2,0.3,0.2,0.5v0.4c0,0.2-0.1,0.4-0.2,0.5c-0.1,0.1-0.3,0.2-0.6,0.2h-3.8c-0.1,0-0.2,0.1-0.2,0.2v2.1
		c0,0.1,0.1,0.2,0.2,0.2h4.4c0.2,0,0.4,0.1,0.5,0.2c0.2,0.1,0.2,0.3,0.2,0.5V47.3z"/>
	<path d="M264.7,47.3c0,0.2-0.1,0.4-0.2,0.5s-0.3,0.2-0.6,0.2h-0.4c-0.2,0-0.4-0.1-0.6-0.2c-0.1-0.1-0.2-0.3-0.2-0.5v-4.7
		c0,0,0-0.1-0.1-0.1h-0.1l-1.6,3.1c0,0.1-0.1,0.2-0.2,0.2c-0.1,0.1-0.2,0.1-0.3,0.2c-0.1,0-0.1,0-0.1,0c-0.4,0-0.6-0.1-0.7-0.4
		l-1.6-3.1c0,0,0,0-0.1,0c0,0-0.1,0-0.1,0.1v4.7c0,0.2-0.1,0.4-0.2,0.5s-0.3,0.2-0.5,0.2h-0.6c-0.2,0-0.4-0.1-0.6-0.2
		c-0.1-0.1-0.2-0.3-0.2-0.5v-9.1c0-0.2,0.1-0.4,0.2-0.5c0.2-0.1,0.3-0.2,0.6-0.2h0.5c0.3,0,0.5,0.1,0.7,0.4c0.1,0.1,0.2,0.3,0.3,0.7
		c0.2,0.3,0.4,0.7,0.6,1.1c0.2,0.4,0.5,0.9,0.7,1.4c0.3,0.5,0.5,1,0.7,1.4l0.1,0.1c0,0,0.1,0,0.1-0.1l2.4-4.6
		c0.1-0.3,0.4-0.4,0.7-0.4h0.5c0.2,0,0.4,0.1,0.6,0.2c0.1,0.1,0.2,0.3,0.2,0.5v9.1C264.6,47.3,264.7,47.3,264.7,47.3z"/>
</g>
<g>
	<path d="M49.3,2.5l1.5,1.6c0.1,3.9,0.1,20.1-5.9,31.2c-4.4,8.3-14.8,14.8-18.2,16.8c-3.5-2-13.8-8.5-18.3-16.9
		c-5.9-11.1-6-27-5.9-31l1.9-1.7h22.4L49.3,2.5 M50.4,0H26.8H3.4L0.1,3.1c0,0-1.1,19.8,6.1,33.3C12.1,47.3,26.7,55,26.7,55
		s14.7-7.7,20.4-18.5c7.3-13.4,6.1-33.3,6.1-33.3L50.4,0L50.4,0z"/>
</g>
<path d="M36.8,18.5h-4.7l4.2,4.9h-0.9L24,10.1L12.6,23.5h2.9v11.4h23.2V23.5H41L36.8,18.5z M24.6,29.2H22v-3.7h2.5v3.7H24.6z"/>
<path class="st0" d="M48.4,3.8l1.2,1.3c0.1,4.1,0,19.3-5.7,29.7c-4.1,7.8-13.7,13.9-17.2,16c-3.5-2.1-13.1-8.2-17.2-16
	C3.9,24.4,3.7,9.4,3.8,5.2l1.5-1.4h21.5L48.4,3.8"/>
<g>
	<path d="M60.4,6.5h4.4v15h6.6v-15h4.4v15h2.8l-0.3,7.8h-4.2v-4.4H60.4V6.5z"/>
	<path d="M92.1,17.1h-7v4.4h8.2v3.4H80.7V6.5h12.7v3.4h-8.3v3.9h7V17.1z"/>
	<path d="M110.5,24.9h-4.4v-7.7h-6.5v7.7h-4.4V6.5h4.4v7.3h6.5V6.5h4.4V24.9z"/>
	<path d="M127.4,9.9h-5.5v15h-4.4v-15H112V6.5h15.4V9.9z"/>
	<path d="M133.7,18.7v6.2h-4.4V6.5h7.3c1.4,0,2.7,0.3,3.7,0.8c1.1,0.5,1.9,1.3,2.5,2.2s0.9,2,0.9,3.3c0,1.8-0.6,3.2-1.9,4.3
		c-1.3,1.1-3,1.6-5.3,1.6H133.7z M133.7,15.2h2.9c0.9,0,1.5-0.2,2-0.6c0.5-0.4,0.7-1,0.7-1.8c0-0.9-0.2-1.5-0.7-2.1
		c-0.5-0.5-1.1-0.8-1.9-0.8h-3V15.2z"/>
	<path d="M165,9.9h-8v2.9h2.3c1.5,0,2.7,0.2,3.9,0.7s2,1.2,2.6,2.1c0.6,0.9,0.9,1.9,0.9,3.1c0,1.8-0.7,3.3-2,4.4
		c-1.3,1.1-3.1,1.7-5.4,1.7h-6.7V6.5H165V9.9z M157,16.2v5.2h2.3c0.9,0,1.6-0.3,2.1-0.8c0.5-0.5,0.8-1.2,0.8-2
		c0-0.8-0.3-1.4-0.8-1.8c-0.5-0.5-1.2-0.7-2.2-0.7H157z"/>
	<path d="M180.1,17.1h-7v4.4h8.2v3.4h-12.7V6.5h12.7v3.4h-8.3v3.9h7V17.1z"/>
	<path d="M192.1,11.6c0-0.6-0.2-1-0.7-1.4c-0.5-0.4-1.1-0.5-1.8-0.5c-0.7,0-1.3,0.2-1.7,0.5c-0.4,0.3-0.7,0.8-0.7,1.3h-4.4
		c0-1,0.3-1.9,0.9-2.7c0.6-0.8,1.4-1.4,2.4-1.9c1.1-0.5,2.2-0.7,3.5-0.7c2.2,0,3.9,0.5,5.1,1.4s1.8,2.2,1.8,3.9
		c0,0.8-0.2,1.6-0.7,2.3s-1.2,1.2-2,1.6c1,0.4,1.8,0.9,2.3,1.6c0.5,0.7,0.8,1.6,0.8,2.7c0,1.7-0.7,3-2,3.9c-1.3,1-3.1,1.5-5.3,1.5
		c-2,0-3.7-0.5-5.1-1.4c-1.3-1-2-2.3-2-3.9h4.4c0,0.5,0.2,1,0.7,1.4c0.5,0.4,1.1,0.6,1.9,0.6c0.8,0,1.5-0.2,2-0.6s0.8-0.9,0.8-1.5
		c0-0.9-0.2-1.5-0.7-1.9c-0.4-0.4-1.1-0.6-1.9-0.6h-2.4v-3.3h2.5C191.4,13.8,192.1,13.1,192.1,11.6z"/>
	<path d="M214.9,24.9h-4.4v-15h-6.6v15h-4.4V6.5h15.5V24.9z"/>
	<path d="M229.1,17.1h-7v4.4h8.2v3.4h-12.7V6.5h12.7v3.4h-8.3v3.9h7V17.1z"/>
	<path d="M238.6,17.6h-2.1v7.3h-4.4V6.5h4.4v7.1h1.7l3.5-7.1h5.4l-5.1,8.5l5.7,9.9h-5.2L238.6,17.6z"/>
	<path d="M259.7,6.5h4.4v18.4h-4.4V13.3l-6.6,11.6h-4.4V6.5h4.4v11.6L259.7,6.5z"/>
</g>
</svg>
