<?xml version="1.0" encoding="utf-8"?>
<!-- Generator: Adobe Illustrator 24.1.2, SVG Export Plug-In . SVG Version: 6.00 Build 0)  -->
<svg version="1.1" id="Layer_1" xmlns="http://www.w3.org/2000/svg" xmlns:xlink="http://www.w3.org/1999/xlink" x="0px" y="0px"
	 viewBox="0 0 264.7 55" style="enable-background:new 0 0 264.7 55;" xml:space="preserve">
<style type="text/css">
	.st0{fill:url(#SVGID_1_);}
	.st1{fill:url(#SVGID_2_);}
	.st2{fill:url(#SVGID_3_);}
	.st3{fill:url(#SVGID_4_);}
	.st4{fill:url(#SVGID_5_);}
	.st5{fill:url(#SVGID_6_);}
	.st6{fill:url(#SVGID_7_);}
	.st7{fill:url(#SVGID_8_);}
	.st8{fill:url(#SVGID_9_);}
	.st9{fill:url(#SVGID_10_);}
	.st10{fill:url(#SVGID_11_);}
	.st11{fill:url(#SVGID_12_);}
	.st12{fill:url(#SVGID_13_);}
	.st13{fill:url(#SVGID_14_);}
	.st14{fill:url(#SVGID_15_);}
	.st15{fill:url(#SVGID_16_);}
	.st16{fill:url(#SVGID_17_);}
	.st17{fill:url(#SVGID_18_);}
	.st18{fill:url(#SVGID_19_);}
	.st19{fill:url(#SVGID_20_);}
	.st20{fill:url(#SVGID_21_);}
	.st21{fill:url(#SVGID_22_);}
	.st22{fill:url(#SVGID_23_);}
	.st23{fill:url(#SVGID_24_);}
	.st24{fill:url(#SVGID_25_);}
	.st25{fill:url(#SVGID_26_);}
	.st26{fill:url(#SVGID_27_);}
	.st27{fill:url(#SVGID_28_);}
	.st28{fill:url(#SVGID_29_);}
	.st29{fill:url(#SVGID_30_);}
	.st30{fill:url(#SVGID_31_);}
	.st31{fill:url(#SVGID_32_);}
	.st32{fill:url(#SVGID_33_);}
	.st33{fill:url(#SVGID_34_);}
	.st34{fill:url(#SVGID_35_);}
	.st35{fill:url(#SVGID_36_);}
	.st36{fill:url(#SVGID_37_);}
	.st37{fill:url(#SVGID_38_);}
	.st38{fill:url(#SVGID_39_);}
	.st39{fill:#FCE180;}
</style>
<g>
	<linearGradient id="SVGID_1_" gradientUnits="userSpaceOnUse" x1="261.2148" y1="42.2251" x2="67.0971" y2="44.8133">
		<stop  offset="0" style="stop-color:#C79D3C"/>
		<stop  offset="0.5279" style="stop-color:#E9D696"/>
		<stop  offset="1" style="stop-color:#AE8E38"/>
	</linearGradient>
	<path class="st0" d="M227.8,37.8c0.1,0.2,0.1,0.5,0,0.7l-3.2,4.8c0,0.1-0.1,0.1-0.1,0.3v3.8c0,0.2-0.1,0.4-0.2,0.5
		c-0.1,0.1-0.3,0.2-0.5,0.2h-0.5c-0.2,0-0.4-0.1-0.6-0.2c-0.1-0.1-0.2-0.3-0.2-0.5v-3.8c0-0.1,0-0.2-0.1-0.3l-3.2-4.8
		c-0.1-0.3-0.2-0.5,0-0.7c0.1-0.3,0.4-0.4,0.7-0.4h0.5c0.3,0,0.5,0.1,0.7,0.3c0.1,0.2,0.3,0.5,0.6,0.9c0.2,0.4,0.5,0.8,0.8,1.3
		s0.6,0.9,0.9,1.3l0.1,0.1c0.1,0,0.1,0,0.1-0.1c0.3-0.5,0.6-0.9,0.9-1.4c0.3-0.5,0.6-0.9,0.8-1.2c0.2-0.4,0.4-0.7,0.6-0.9
		c0.1-0.2,0.4-0.3,0.7-0.3h0.5C227.4,37.4,227.7,37.5,227.8,37.8z"/>
	<linearGradient id="SVGID_2_" gradientUnits="userSpaceOnUse" x1="261.1871" y1="40.1481" x2="67.0694" y2="42.7364">
		<stop  offset="0" style="stop-color:#C79D3C"/>
		<stop  offset="0.5279" style="stop-color:#E9D696"/>
		<stop  offset="1" style="stop-color:#AE8E38"/>
	</linearGradient>
	<path class="st1" d="M67.4,38.7c0,0.2-0.1,0.4-0.2,0.5s-0.3,0.2-0.6,0.2h-1.8c-0.1,0-0.2,0.1-0.2,0.2v7.7c0,0.2-0.1,0.4-0.2,0.5
		S64.1,48,63.9,48h-0.4c-0.2,0-0.4-0.1-0.6-0.2c-0.1-0.1-0.2-0.3-0.2-0.5v-7.7c0-0.1-0.1-0.2-0.2-0.2h-1.8c-0.2,0-0.4-0.1-0.6-0.2
		c-0.1-0.1-0.2-0.3-0.2-0.5v-0.4c0-0.2,0.1-0.4,0.2-0.5c0.2-0.1,0.3-0.2,0.6-0.2h6c0.2,0,0.4,0.1,0.6,0.2c0.1,0.1,0.2,0.3,0.2,0.5
		L67.4,38.7L67.4,38.7z"/>
	<linearGradient id="SVGID_3_" gradientUnits="userSpaceOnUse" x1="261.1882" y1="40.2335" x2="67.0706" y2="42.8217">
		<stop  offset="0" style="stop-color:#C79D3C"/>
		<stop  offset="0.5279" style="stop-color:#E9D696"/>
		<stop  offset="1" style="stop-color:#AE8E38"/>
	</linearGradient>
	<path class="st2" d="M76.1,47.3c0,0.2-0.1,0.4-0.2,0.5S75.6,48,75.4,48h-5.9c-0.2,0-0.4-0.1-0.5-0.2c-0.1-0.1-0.2-0.3-0.2-0.5v-9.1
		c0-0.2,0.1-0.4,0.2-0.5c0.2-0.1,0.3-0.2,0.5-0.2h5.8c0.2,0,0.4,0.1,0.5,0.2C76,37.8,76,38,76,38.2v0.4c0,0.2-0.1,0.4-0.2,0.5
		s-0.3,0.2-0.5,0.2h-4.4c-0.1,0-0.2,0.1-0.2,0.2v2.1c0,0.1,0.1,0.2,0.2,0.2h3.8c0.2,0,0.4,0.1,0.6,0.2c0.1,0.1,0.2,0.3,0.2,0.5v0.4
		c0,0.2-0.1,0.4-0.2,0.5s-0.3,0.2-0.6,0.2h-3.8c-0.1,0-0.2,0.1-0.2,0.2v2.1c0,0.1,0.1,0.2,0.2,0.2h4.4c0.2,0,0.4,0.1,0.5,0.2
		c0.2,0.1,0.2,0.3,0.2,0.5L76.1,47.3C76,47.3,76.1,47.3,76.1,47.3z"/>
	<linearGradient id="SVGID_4_" gradientUnits="userSpaceOnUse" x1="261.1905" y1="40.4015" x2="67.0728" y2="42.9897">
		<stop  offset="0" style="stop-color:#C79D3C"/>
		<stop  offset="0.5279" style="stop-color:#E9D696"/>
		<stop  offset="1" style="stop-color:#AE8E38"/>
	</linearGradient>
	<path class="st3" d="M85,46c0,0.4-0.1,0.7-0.3,1c-0.2,0.3-0.5,0.6-0.8,0.7c-0.3,0.2-0.7,0.3-1.1,0.3h-3c-0.4,0-0.8-0.1-1.1-0.3
		s-0.6-0.4-0.8-0.7c-0.2-0.3-0.3-0.7-0.3-1v-6.4c0-0.4,0.1-0.7,0.3-1s0.5-0.6,0.8-0.7c0.4-0.2,0.7-0.3,1.1-0.3h3
		c0.4,0,0.8,0.1,1.1,0.3c0.3,0.2,0.6,0.4,0.8,0.7s0.3,0.7,0.3,1V40c0,0.2-0.1,0.4-0.2,0.5s-0.3,0.2-0.6,0.2h-0.5
		c-0.2,0-0.4-0.1-0.6-0.2c-0.1-0.1-0.2-0.3-0.2-0.5v-0.4c0-0.1-0.1-0.2-0.2-0.2h-3c-0.1,0-0.2,0.1-0.2,0.2V46c0,0.1,0,0.1,0.1,0.2
		c0,0,0.1,0.1,0.2,0.1h3c0.1,0,0.1,0,0.2-0.1c0-0.1,0.1-0.1,0.1-0.2v-0.5c0-0.2,0.1-0.4,0.2-0.5c0.2-0.1,0.3-0.2,0.6-0.2h0.5
		c0.2,0,0.4,0.1,0.6,0.2c0.1,0.1,0.2,0.3,0.2,0.5V46H85z"/>
	<linearGradient id="SVGID_5_" gradientUnits="userSpaceOnUse" x1="261.1913" y1="40.4694" x2="67.0737" y2="43.0577">
		<stop  offset="0" style="stop-color:#C79D3C"/>
		<stop  offset="0.5279" style="stop-color:#E9D696"/>
		<stop  offset="1" style="stop-color:#AE8E38"/>
	</linearGradient>
	<path class="st4" d="M93.9,47.3c0,0.2-0.1,0.4-0.2,0.5S93.4,48,93.1,48h-0.5c-0.2,0-0.4-0.1-0.6-0.2c-0.1-0.1-0.2-0.3-0.2-0.5v-3.4
		c0-0.1-0.1-0.2-0.2-0.2h-3c-0.1,0-0.2,0.1-0.2,0.2v3.4c0,0.2-0.1,0.4-0.2,0.5S87.9,48,87.7,48h-0.5c-0.2,0-0.4-0.1-0.6-0.2
		c-0.1-0.1-0.2-0.3-0.2-0.5v-9.1c0-0.2,0.1-0.4,0.2-0.5c0.2-0.1,0.3-0.2,0.6-0.2h0.5c0.2,0,0.4,0.1,0.5,0.2c0.2,0.1,0.2,0.3,0.2,0.5
		v3.4c0,0.1,0.1,0.2,0.2,0.2h3c0.1,0,0.2-0.1,0.2-0.2v-3.4c0-0.2,0.1-0.4,0.2-0.5c0.2-0.1,0.3-0.2,0.6-0.2h0.5
		c0.2,0,0.4,0.1,0.6,0.2c0.1,0.1,0.2,0.3,0.2,0.5L93.9,47.3L93.9,47.3z"/>
	<linearGradient id="SVGID_6_" gradientUnits="userSpaceOnUse" x1="261.193" y1="40.5901" x2="67.0753" y2="43.1783">
		<stop  offset="0" style="stop-color:#C79D3C"/>
		<stop  offset="0.5279" style="stop-color:#E9D696"/>
		<stop  offset="1" style="stop-color:#AE8E38"/>
	</linearGradient>
	<path class="st5" d="M103,47.3c0,0.2-0.1,0.4-0.2,0.5s-0.3,0.2-0.5,0.2h-0.5c-0.3,0-0.5-0.1-0.7-0.4l-3.6-5.7c0,0-0.1-0.1-0.1,0
		c0,0-0.1,0-0.1,0.1v5.3c0,0.2-0.1,0.4-0.2,0.5S96.8,48,96.6,48h-0.5c-0.2,0-0.4-0.1-0.6-0.2c-0.1-0.1-0.2-0.3-0.2-0.5v-9.1
		c0-0.2,0.1-0.4,0.2-0.5c0.2-0.1,0.3-0.2,0.6-0.2h0.5c0.3,0,0.5,0.1,0.7,0.4l3.6,5.7c0,0,0.1,0.1,0.1,0c0,0,0.1,0,0.1-0.1v-5.3
		c0-0.2,0.1-0.4,0.2-0.5c0.2-0.1,0.3-0.2,0.6-0.2h0.5c0.2,0,0.4,0.1,0.5,0.2c0.2,0.1,0.2,0.3,0.2,0.5L103,47.3L103,47.3z"/>
	<linearGradient id="SVGID_7_" gradientUnits="userSpaceOnUse" x1="261.1941" y1="40.6734" x2="67.0764" y2="43.2616">
		<stop  offset="0" style="stop-color:#C79D3C"/>
		<stop  offset="0.5279" style="stop-color:#E9D696"/>
		<stop  offset="1" style="stop-color:#AE8E38"/>
	</linearGradient>
	<path class="st6" d="M106.4,47.3c0,0.2-0.1,0.4-0.2,0.5s-0.3,0.2-0.5,0.2h-0.5c-0.2,0-0.4-0.1-0.6-0.2c-0.1-0.1-0.2-0.3-0.2-0.5
		v-9.1c0-0.2,0.1-0.4,0.2-0.5c0.2-0.1,0.3-0.2,0.6-0.2h0.5c0.2,0,0.4,0.1,0.5,0.2c0.2,0.1,0.2,0.3,0.2,0.5V47.3z"/>
	<linearGradient id="SVGID_8_" gradientUnits="userSpaceOnUse" x1="261.1959" y1="40.8067" x2="67.0782" y2="43.395">
		<stop  offset="0" style="stop-color:#C79D3C"/>
		<stop  offset="0.5279" style="stop-color:#E9D696"/>
		<stop  offset="1" style="stop-color:#AE8E38"/>
	</linearGradient>
	<path class="st7" d="M115.4,46c0,0.4-0.1,0.7-0.3,1s-0.5,0.6-0.8,0.7c-0.3,0.2-0.7,0.3-1.1,0.3h-3c-0.4,0-0.8-0.1-1.1-0.3
		c-0.3-0.2-0.6-0.4-0.8-0.7s-0.3-0.7-0.3-1v-6.4c0-0.4,0.1-0.7,0.3-1c0.2-0.3,0.5-0.6,0.8-0.7c0.4-0.2,0.7-0.3,1.1-0.3h3
		c0.4,0,0.8,0.1,1.1,0.3s0.6,0.4,0.8,0.7c0.2,0.3,0.3,0.7,0.3,1V40c0,0.2-0.1,0.4-0.2,0.5s-0.3,0.2-0.6,0.2h-0.5
		c-0.2,0-0.4-0.1-0.6-0.2c-0.1-0.1-0.2-0.3-0.2-0.5v-0.4c0-0.1-0.1-0.2-0.2-0.2h-3c-0.1,0-0.2,0.1-0.2,0.2V46c0,0.1,0,0.1,0.1,0.2
		c0,0,0.1,0.1,0.2,0.1h3c0.1,0,0.1,0,0.2-0.1c0-0.1,0.1-0.1,0.1-0.2v-0.5c0-0.2,0.1-0.4,0.2-0.5c0.2-0.1,0.3-0.2,0.6-0.2h0.5
		c0.2,0,0.4,0.1,0.6,0.2c0.1,0.1,0.2,0.3,0.2,0.5V46H115.4z"/>
	<linearGradient id="SVGID_9_" gradientUnits="userSpaceOnUse" x1="261.1985" y1="41.0045" x2="67.0808" y2="43.5928">
		<stop  offset="0" style="stop-color:#C79D3C"/>
		<stop  offset="0.5279" style="stop-color:#E9D696"/>
		<stop  offset="1" style="stop-color:#AE8E38"/>
	</linearGradient>
	<path class="st8" d="M125.5,47.1c0.1,0.2,0,0.5-0.1,0.7s-0.4,0.3-0.6,0.3h-0.5c-0.2,0-0.3,0-0.5-0.1c-0.1-0.1-0.2-0.2-0.3-0.3
		l-0.6-1.8c0-0.1-0.1-0.2-0.3-0.2h-2.9c-0.1,0-0.2,0.1-0.3,0.2l-0.6,1.8c-0.1,0.1-0.2,0.2-0.3,0.3s-0.3,0.1-0.5,0.1h-0.5
		c-0.3,0-0.5-0.1-0.6-0.3c-0.2-0.2-0.2-0.4-0.1-0.7l3.3-9.1c0.1-0.1,0.1-0.3,0.3-0.3c0.1-0.1,0.3-0.1,0.4-0.1h0.7
		c0.2,0,0.3,0,0.4,0.1s0.2,0.2,0.3,0.3L125.5,47.1z M122.1,43.5l-0.8-2.4c-0.1-0.1-0.1-0.1-0.2,0l-0.8,2.4c0,0.1,0,0.1,0,0.1
		l0.1,0.1h1.6C122.1,43.7,122.1,43.7,122.1,43.5C122.1,43.6,122.1,43.6,122.1,43.5z"/>
	<linearGradient id="SVGID_10_" gradientUnits="userSpaceOnUse" x1="261.1985" y1="41.0087" x2="67.0809" y2="43.5969">
		<stop  offset="0" style="stop-color:#C79D3C"/>
		<stop  offset="0.5279" style="stop-color:#E9D696"/>
		<stop  offset="1" style="stop-color:#AE8E38"/>
	</linearGradient>
	<path class="st9" d="M134.2,47.3c0,0.2-0.1,0.4-0.2,0.5c-0.1,0.1-0.3,0.2-0.5,0.2h-5.8c-0.2,0-0.4-0.1-0.5-0.2
		c-0.1-0.1-0.2-0.3-0.2-0.5v-9.1c0-0.2,0.1-0.4,0.2-0.5c0.2-0.1,0.3-0.2,0.5-0.2h0.5c0.2,0,0.4,0.1,0.5,0.2c0.2,0.1,0.2,0.3,0.2,0.5
		v7.7c0,0.1,0.1,0.2,0.2,0.2h4.4c0.2,0,0.4,0.1,0.5,0.2c0.2,0.1,0.2,0.3,0.2,0.5C134.2,46.8,134.2,47.3,134.2,47.3z"/>
	<linearGradient id="SVGID_11_" gradientUnits="userSpaceOnUse" x1="261.2015" y1="41.2293" x2="67.0838" y2="43.8175">
		<stop  offset="0" style="stop-color:#C79D3C"/>
		<stop  offset="0.5279" style="stop-color:#E9D696"/>
		<stop  offset="1" style="stop-color:#AE8E38"/>
	</linearGradient>
	<path class="st10" d="M147.2,46c0,0.4-0.1,0.7-0.3,1s-0.5,0.6-0.8,0.7c-0.3,0.2-0.7,0.3-1.1,0.3h-3.3c-0.4,0-0.8-0.1-1.1-0.3
		s-0.6-0.4-0.8-0.7s-0.3-0.7-0.3-1v-0.5c0-0.2,0.1-0.4,0.2-0.5c0.2-0.1,0.3-0.2,0.6-0.2h0.5c0.2,0,0.4,0.1,0.5,0.2
		c0.2,0.1,0.2,0.3,0.2,0.5V46c0,0.1,0,0.1,0.1,0.2c0.1,0,0.1,0.1,0.2,0.1h3.3c0.1,0,0.1,0,0.2-0.1c0-0.1,0.1-0.1,0.1-0.2v-1.4
		c0-0.1-0.1-0.2-0.2-0.2l-4.1-1.4c-0.5-0.1-0.8-0.4-1.1-0.8c-0.3-0.4-0.4-0.8-0.4-1.2v-1.4c0-0.4,0.1-0.7,0.3-1s0.5-0.6,0.8-0.7
		c0.4-0.2,0.7-0.3,1.1-0.3h3.3c0.4,0,0.8,0.1,1.1,0.3s0.6,0.4,0.8,0.7s0.3,0.7,0.3,1V40c0,0.2-0.1,0.4-0.2,0.5
		c-0.1,0.1-0.3,0.2-0.5,0.2h-0.5c-0.2,0-0.4-0.1-0.6-0.2c-0.1-0.1-0.2-0.3-0.2-0.5v-0.4c0-0.1-0.1-0.2-0.2-0.2h-3.3
		c-0.1,0-0.1,0-0.2,0.1c0,0-0.1,0.1-0.1,0.2v1.4c0,0.1,0.1,0.2,0.2,0.2l4.1,1.4c0.4,0.1,0.8,0.4,1.1,0.8c0.3,0.4,0.4,0.8,0.4,1.2V46
		H147.2z"/>
	<linearGradient id="SVGID_12_" gradientUnits="userSpaceOnUse" x1="261.2024" y1="41.2993" x2="67.0848" y2="43.8875">
		<stop  offset="0" style="stop-color:#C79D3C"/>
		<stop  offset="0.5279" style="stop-color:#E9D696"/>
		<stop  offset="1" style="stop-color:#AE8E38"/>
	</linearGradient>
	<path class="st11" d="M156,47.3c0,0.2-0.1,0.4-0.2,0.5c-0.1,0.1-0.3,0.2-0.5,0.2h-5.8c-0.2,0-0.4-0.1-0.5-0.2
		c-0.1-0.1-0.2-0.3-0.2-0.5v-9.1c0-0.2,0.1-0.4,0.2-0.5c0.2-0.1,0.3-0.2,0.5-0.2h5.8c0.2,0,0.4,0.1,0.5,0.2c0.2,0.1,0.2,0.3,0.2,0.5
		v0.4c0,0.2-0.1,0.4-0.2,0.5c-0.1,0.1-0.3,0.2-0.5,0.2h-4.4c-0.1,0-0.2,0.1-0.2,0.2v2.1c0,0.1,0.1,0.2,0.2,0.2h3.8
		c0.2,0,0.4,0.1,0.6,0.2c0.1,0.1,0.2,0.3,0.2,0.5v0.4c0,0.2-0.1,0.4-0.2,0.5c-0.1,0.1-0.3,0.2-0.6,0.2h-3.8c-0.1,0-0.2,0.1-0.2,0.2
		v2.1c0,0.1,0.1,0.2,0.2,0.2h4.4c0.2,0,0.4,0.1,0.5,0.2c0.2,0.1,0.2,0.3,0.2,0.5V47.3z"/>
	<linearGradient id="SVGID_13_" gradientUnits="userSpaceOnUse" x1="261.2047" y1="41.4666" x2="67.087" y2="44.0548">
		<stop  offset="0" style="stop-color:#C79D3C"/>
		<stop  offset="0.5279" style="stop-color:#E9D696"/>
		<stop  offset="1" style="stop-color:#AE8E38"/>
	</linearGradient>
	<path class="st12" d="M164.9,46c0,0.4-0.1,0.7-0.3,1s-0.5,0.6-0.8,0.7c-0.3,0.2-0.7,0.3-1.1,0.3h-3c-0.4,0-0.8-0.1-1.1-0.3
		s-0.6-0.4-0.8-0.7s-0.3-0.7-0.3-1v-6.4c0-0.4,0.1-0.7,0.3-1s0.5-0.6,0.8-0.7c0.4-0.2,0.7-0.3,1.1-0.3h3c0.4,0,0.8,0.1,1.1,0.3
		s0.6,0.4,0.8,0.7s0.3,0.7,0.3,1V40c0,0.2-0.1,0.4-0.2,0.5c-0.1,0.1-0.3,0.2-0.6,0.2h-0.5c-0.2,0-0.4-0.1-0.6-0.2
		c-0.1-0.1-0.2-0.3-0.2-0.5v-0.4c0-0.1-0.1-0.2-0.2-0.2h-3c-0.1,0-0.2,0.1-0.2,0.2V46c0,0.1,0,0.1,0.1,0.2c0,0,0.1,0.1,0.2,0.1h3
		c0.1,0,0.1,0,0.2-0.1c0-0.1,0.1-0.1,0.1-0.2v-0.5c0-0.2,0.1-0.4,0.2-0.5c0.2-0.1,0.3-0.2,0.6-0.2h0.5c0.2,0,0.4,0.1,0.6,0.2
		c0.1,0.1,0.2,0.3,0.2,0.5V46H164.9z"/>
	<linearGradient id="SVGID_14_" gradientUnits="userSpaceOnUse" x1="261.2061" y1="41.576" x2="67.0885" y2="44.1642">
		<stop  offset="0" style="stop-color:#C79D3C"/>
		<stop  offset="0.5279" style="stop-color:#E9D696"/>
		<stop  offset="1" style="stop-color:#AE8E38"/>
	</linearGradient>
	<path class="st13" d="M173.8,46c0,0.4-0.1,0.7-0.3,1s-0.5,0.6-0.8,0.7c-0.3,0.2-0.7,0.3-1.1,0.3h-3c-0.4,0-0.8-0.1-1.1-0.3
		s-0.6-0.4-0.8-0.7s-0.3-0.7-0.3-1v-7.7c0-0.2,0.1-0.4,0.2-0.5c0.2-0.1,0.3-0.2,0.6-0.2h0.5c0.2,0,0.4,0.1,0.5,0.2
		c0.2,0.1,0.2,0.3,0.2,0.5V46c0,0.1,0,0.1,0.1,0.2c0,0,0.1,0.1,0.2,0.1h3c0.1,0,0.1,0,0.2-0.1c0-0.1,0.1-0.1,0.1-0.2v-7.7
		c0-0.2,0.1-0.4,0.2-0.5c0.2-0.1,0.3-0.2,0.6-0.2h0.5c0.2,0,0.4,0.1,0.6,0.2c0.1,0.1,0.2,0.3,0.2,0.5V46H173.8z"/>
	<linearGradient id="SVGID_15_" gradientUnits="userSpaceOnUse" x1="261.2085" y1="41.7546" x2="67.0908" y2="44.3428">
		<stop  offset="0" style="stop-color:#C79D3C"/>
		<stop  offset="0.5279" style="stop-color:#E9D696"/>
		<stop  offset="1" style="stop-color:#AE8E38"/>
	</linearGradient>
	<path class="st14" d="M182.8,47.1c0.1,0.2,0.1,0.5-0.1,0.7c-0.2,0.2-0.4,0.3-0.6,0.3h-0.5c-0.1,0-0.3,0-0.4-0.1
		c-0.1-0.1-0.2-0.2-0.3-0.3l-1.6-3.5c-0.1-0.1-0.2-0.2-0.3-0.2h-1.6c-0.1,0-0.2,0.1-0.2,0.2v3.2c0,0.2-0.1,0.4-0.2,0.5
		c-0.1,0.1-0.3,0.2-0.5,0.2H176c-0.2,0-0.4-0.1-0.5-0.2c-0.1-0.1-0.2-0.3-0.2-0.5v-9.1c0-0.2,0.1-0.4,0.2-0.5
		c0.1-0.1,0.3-0.2,0.5-0.2h4.6c0.4,0,0.8,0.1,1.1,0.3s0.6,0.4,0.8,0.7s0.3,0.7,0.3,1v2.3c0,0.4-0.1,0.8-0.4,1.1
		c-0.2,0.3-0.5,0.6-0.9,0.7c0,0-0.1,0-0.1,0.1s0,0.1,0,0.2L182.8,47.1z M180.8,41.9v-2.3c0-0.1-0.1-0.2-0.2-0.2h-3.1
		c-0.1,0-0.2,0.1-0.2,0.2v2.3c0,0.1,0.1,0.2,0.2,0.2h3.1C180.7,42.1,180.8,42,180.8,41.9z"/>
	<linearGradient id="SVGID_16_" gradientUnits="userSpaceOnUse" x1="261.2083" y1="41.7385" x2="67.0906" y2="44.3268">
		<stop  offset="0" style="stop-color:#C79D3C"/>
		<stop  offset="0.5279" style="stop-color:#E9D696"/>
		<stop  offset="1" style="stop-color:#AE8E38"/>
	</linearGradient>
	<path class="st15" d="M186.3,47.3c0,0.2-0.1,0.4-0.2,0.5c-0.1,0.1-0.3,0.2-0.5,0.2h-0.5c-0.2,0-0.4-0.1-0.6-0.2
		c-0.1-0.1-0.2-0.3-0.2-0.5v-9.1c0-0.2,0.1-0.4,0.2-0.5c0.2-0.1,0.3-0.2,0.6-0.2h0.5c0.2,0,0.4,0.1,0.5,0.2c0.2,0.1,0.2,0.3,0.2,0.5
		V47.3z"/>
	<linearGradient id="SVGID_17_" gradientUnits="userSpaceOnUse" x1="261.2098" y1="41.8518" x2="67.0921" y2="44.4401">
		<stop  offset="0" style="stop-color:#C79D3C"/>
		<stop  offset="0.5279" style="stop-color:#E9D696"/>
		<stop  offset="1" style="stop-color:#AE8E38"/>
	</linearGradient>
	<path class="st16" d="M195.2,38.7c0,0.2-0.1,0.4-0.2,0.5c-0.1,0.1-0.3,0.2-0.6,0.2h-1.8c-0.1,0-0.2,0.1-0.2,0.2v7.7
		c0,0.2-0.1,0.4-0.2,0.5c-0.1,0.1-0.3,0.2-0.5,0.2h-0.4c-0.2,0-0.4-0.1-0.6-0.2c-0.1-0.1-0.2-0.3-0.2-0.5v-7.7
		c0-0.1-0.1-0.2-0.2-0.2h-1.8c-0.2,0-0.4-0.1-0.6-0.2c-0.1-0.1-0.2-0.3-0.2-0.5v-0.4c0-0.2,0.1-0.4,0.2-0.5c0.2-0.1,0.3-0.2,0.6-0.2
		h6c0.2,0,0.4,0.1,0.6,0.2c0.1,0.1,0.2,0.3,0.2,0.5v0.4H195.2z"/>
	<linearGradient id="SVGID_18_" gradientUnits="userSpaceOnUse" x1="261.2114" y1="41.9738" x2="67.0938" y2="44.5621">
		<stop  offset="0" style="stop-color:#C79D3C"/>
		<stop  offset="0.5279" style="stop-color:#E9D696"/>
		<stop  offset="1" style="stop-color:#AE8E38"/>
	</linearGradient>
	<path class="st17" d="M205.2,37.9c0.1,0.2,0.1,0.5,0,0.7l-3.2,4.7c0,0.1-0.1,0.1-0.1,0.3v3.7c0,0.2-0.1,0.4-0.2,0.5
		c-0.1,0.1-0.3,0.2-0.5,0.2h-0.5c-0.2,0-0.4-0.1-0.6-0.2c-0.1-0.1-0.2-0.3-0.2-0.5v-3.7c0-0.1,0-0.2-0.1-0.2l-3.2-4.7
		c-0.1-0.3-0.2-0.5,0-0.7c0.1-0.2,0.4-0.4,0.7-0.4h0.5c0.3,0,0.5,0.1,0.7,0.3c0.1,0.2,0.3,0.5,0.6,0.8c0.2,0.4,0.5,0.8,0.8,1.3
		c0.3,0.4,0.6,0.9,0.9,1.3l0.1,0.1c0.1,0,0.1,0,0.1-0.1c0.3-0.5,0.6-0.9,0.9-1.3c0.3-0.4,0.6-0.8,0.8-1.2s0.4-0.6,0.6-0.8
		c0.1-0.2,0.4-0.3,0.7-0.3h0.5C204.9,37.5,205.1,37.7,205.2,37.9z"/>
	<linearGradient id="SVGID_19_" gradientUnits="userSpaceOnUse" x1="261.2141" y1="42.1785" x2="67.0965" y2="44.7667">
		<stop  offset="0" style="stop-color:#C79D3C"/>
		<stop  offset="0.5279" style="stop-color:#E9D696"/>
		<stop  offset="1" style="stop-color:#AE8E38"/>
	</linearGradient>
	<path class="st18" d="M218.4,46c0,0.4-0.1,0.7-0.3,1s-0.5,0.6-0.8,0.7c-0.3,0.2-0.7,0.3-1.1,0.3h-3.3c-0.4,0-0.8-0.1-1.1-0.3
		s-0.6-0.4-0.8-0.7s-0.3-0.7-0.3-1v-0.5c0-0.2,0.1-0.4,0.2-0.5c0.2-0.1,0.3-0.2,0.6-0.2h0.5c0.2,0,0.4,0.1,0.5,0.2
		c0.2,0.1,0.2,0.3,0.2,0.5V46c0,0.1,0,0.1,0.1,0.2c0.1,0,0.1,0.1,0.2,0.1h3.3c0.1,0,0.1,0,0.2-0.1c0-0.1,0.1-0.1,0.1-0.2v-1.4
		c0-0.1-0.1-0.2-0.2-0.2l-4.1-1.4c-0.5-0.1-0.8-0.4-1.1-0.8c-0.3-0.4-0.4-0.8-0.4-1.2v-1.4c0-0.4,0.1-0.7,0.3-1s0.5-0.6,0.8-0.7
		c0.4-0.2,0.7-0.3,1.1-0.3h3.3c0.4,0,0.8,0.1,1.1,0.3s0.6,0.4,0.8,0.7s0.3,0.7,0.3,1V40c0,0.2-0.1,0.4-0.2,0.5
		c-0.1,0.1-0.3,0.2-0.5,0.2h-0.5c-0.2,0-0.4-0.1-0.6-0.2c-0.1-0.1-0.2-0.3-0.2-0.5v-0.4c0-0.1-0.1-0.2-0.2-0.2H213
		c-0.1,0-0.1,0-0.2,0.1c0,0-0.1,0.1-0.1,0.2v1.4c0,0.1,0.1,0.2,0.2,0.2l4.1,1.4c0.4,0.1,0.8,0.4,1.1,0.8c0.3,0.4,0.4,0.8,0.4,1.2V46
		H218.4z"/>
	<linearGradient id="SVGID_20_" gradientUnits="userSpaceOnUse" x1="261.2174" y1="42.4224" x2="67.0997" y2="45.0107">
		<stop  offset="0" style="stop-color:#C79D3C"/>
		<stop  offset="0.5279" style="stop-color:#E9D696"/>
		<stop  offset="1" style="stop-color:#AE8E38"/>
	</linearGradient>
	<path class="st19" d="M236.7,46c0,0.4-0.1,0.7-0.3,1s-0.5,0.6-0.8,0.7c-0.3,0.2-0.7,0.3-1.1,0.3h-3.3c-0.4,0-0.8-0.1-1.1-0.3
		s-0.6-0.4-0.8-0.7s-0.3-0.7-0.3-1v-0.5c0-0.2,0.1-0.4,0.2-0.5c0.2-0.1,0.3-0.2,0.6-0.2h0.5c0.2,0,0.4,0.1,0.5,0.2
		c0.2,0.1,0.2,0.3,0.2,0.5V46c0,0.1,0,0.1,0.1,0.2c0.1,0,0.1,0.1,0.2,0.1h3.3c0.1,0,0.1,0,0.2-0.1c0-0.1,0.1-0.1,0.1-0.2v-1.4
		c0-0.1-0.1-0.2-0.2-0.2l-4.1-1.4c-0.5-0.1-0.8-0.4-1.1-0.8c-0.3-0.4-0.4-0.8-0.4-1.2v-1.4c0-0.4,0.1-0.7,0.3-1s0.5-0.6,0.8-0.7
		c0.4-0.2,0.7-0.3,1.1-0.3h3.3c0.4,0,0.8,0.1,1.1,0.3s0.6,0.4,0.8,0.7s0.3,0.7,0.3,1V40c0,0.2-0.1,0.4-0.2,0.5
		c-0.1,0.1-0.3,0.2-0.5,0.2h-0.6c-0.2,0-0.4-0.1-0.6-0.2c-0.1-0.1-0.2-0.3-0.2-0.5v-0.4c0-0.1-0.1-0.2-0.2-0.2h-3.3
		c-0.1,0-0.1,0-0.2,0.1c0,0-0.1,0.1-0.1,0.2v1.4c0,0.1,0.1,0.2,0.2,0.2l4.1,1.4c0.4,0.1,0.8,0.4,1.1,0.8c0.3,0.4,0.4,0.8,0.4,1.2V46
		z"/>
	<linearGradient id="SVGID_21_" gradientUnits="userSpaceOnUse" x1="261.2188" y1="42.5251" x2="67.1011" y2="45.1133">
		<stop  offset="0" style="stop-color:#C79D3C"/>
		<stop  offset="0.5279" style="stop-color:#E9D696"/>
		<stop  offset="1" style="stop-color:#AE8E38"/>
	</linearGradient>
	<path class="st20" d="M245.7,38.7c0,0.2-0.1,0.4-0.2,0.5c-0.1,0.1-0.3,0.2-0.6,0.2h-1.8c-0.1,0-0.2,0.1-0.2,0.2v7.7
		c0,0.2-0.1,0.4-0.2,0.5c-0.1,0.1-0.3,0.2-0.5,0.2h-0.4c-0.2,0-0.4-0.1-0.6-0.2c-0.1-0.1-0.2-0.3-0.2-0.5v-7.7
		c0-0.1-0.1-0.2-0.2-0.2H239c-0.2,0-0.4-0.1-0.6-0.2c-0.1-0.1-0.2-0.3-0.2-0.5v-0.4c0-0.2,0.1-0.4,0.2-0.5c0.2-0.1,0.3-0.2,0.6-0.2
		h6c0.2,0,0.4,0.1,0.6,0.2c0.1,0.1,0.2,0.3,0.2,0.5v0.4H245.7z"/>
	<linearGradient id="SVGID_22_" gradientUnits="userSpaceOnUse" x1="261.2199" y1="42.6111" x2="67.1023" y2="45.1993">
		<stop  offset="0" style="stop-color:#C79D3C"/>
		<stop  offset="0.5279" style="stop-color:#E9D696"/>
		<stop  offset="1" style="stop-color:#AE8E38"/>
	</linearGradient>
	<path class="st21" d="M254.4,47.3c0,0.2-0.1,0.4-0.2,0.5c-0.1,0.1-0.3,0.2-0.5,0.2h-5.8c-0.2,0-0.4-0.1-0.5-0.2
		c-0.1-0.1-0.2-0.3-0.2-0.5v-9.1c0-0.2,0.1-0.4,0.2-0.5c0.2-0.1,0.3-0.2,0.5-0.2h5.8c0.2,0,0.4,0.1,0.5,0.2c0.2,0.1,0.2,0.3,0.2,0.5
		v0.4c0,0.2-0.1,0.4-0.2,0.5c-0.1,0.1-0.3,0.2-0.5,0.2h-4.4c-0.1,0-0.2,0.1-0.2,0.2v2.1c0,0.1,0.1,0.2,0.2,0.2h3.8
		c0.2,0,0.4,0.1,0.6,0.2c0.1,0.1,0.2,0.3,0.2,0.5v0.4c0,0.2-0.1,0.4-0.2,0.5c-0.1,0.1-0.3,0.2-0.6,0.2h-3.8c-0.1,0-0.2,0.1-0.2,0.2
		v2.1c0,0.1,0.1,0.2,0.2,0.2h4.4c0.2,0,0.4,0.1,0.5,0.2c0.2,0.1,0.2,0.3,0.2,0.5V47.3z"/>
	<linearGradient id="SVGID_23_" gradientUnits="userSpaceOnUse" x1="261.2216" y1="42.7364" x2="67.1039" y2="45.3246">
		<stop  offset="0" style="stop-color:#C79D3C"/>
		<stop  offset="0.5279" style="stop-color:#E9D696"/>
		<stop  offset="1" style="stop-color:#AE8E38"/>
	</linearGradient>
	<path class="st22" d="M264.7,47.3c0,0.2-0.1,0.4-0.2,0.5s-0.3,0.2-0.6,0.2h-0.4c-0.2,0-0.4-0.1-0.6-0.2c-0.1-0.1-0.2-0.3-0.2-0.5
		v-4.7c0,0,0-0.1-0.1-0.1h-0.1l-1.6,3.1c0,0.1-0.1,0.2-0.2,0.2c-0.1,0.1-0.2,0.1-0.3,0.2c-0.1,0-0.1,0-0.1,0c-0.4,0-0.6-0.1-0.7-0.4
		l-1.6-3.1c0,0,0,0-0.1,0c0,0-0.1,0-0.1,0.1v4.7c0,0.2-0.1,0.4-0.2,0.5s-0.3,0.2-0.5,0.2h-0.6c-0.2,0-0.4-0.1-0.6-0.2
		c-0.1-0.1-0.2-0.3-0.2-0.5v-9.1c0-0.2,0.1-0.4,0.2-0.5c0.2-0.1,0.3-0.2,0.6-0.2h0.5c0.3,0,0.5,0.1,0.7,0.4c0.1,0.1,0.2,0.3,0.3,0.7
		c0.2,0.3,0.4,0.7,0.6,1.1c0.2,0.4,0.5,0.9,0.7,1.4c0.3,0.5,0.5,1,0.7,1.4l0.1,0.1c0,0,0.1,0,0.1-0.1l2.4-4.6
		c0.1-0.3,0.4-0.4,0.7-0.4h0.5c0.2,0,0.4,0.1,0.6,0.2c0.1,0.1,0.2,0.3,0.2,0.5v9.1C264.6,47.3,264.7,47.3,264.7,47.3z"/>
</g>
<g>
	<linearGradient id="SVGID_24_" gradientUnits="userSpaceOnUse" x1="260.8564" y1="15.3466" x2="66.7387" y2="17.9348">
		<stop  offset="0" style="stop-color:#C79D3C"/>
		<stop  offset="0.5279" style="stop-color:#E9D696"/>
		<stop  offset="1" style="stop-color:#AE8E38"/>
	</linearGradient>
	<path class="st23" d="M60.4,6.5h4.4v15h6.6v-15h4.4v15h2.8l-0.3,7.8h-4.2v-4.4H60.4V6.5z"/>
	<linearGradient id="SVGID_25_" gradientUnits="userSpaceOnUse" x1="260.8302" y1="13.3823" x2="66.7125" y2="15.9705">
		<stop  offset="0" style="stop-color:#C79D3C"/>
		<stop  offset="0.5279" style="stop-color:#E9D696"/>
		<stop  offset="1" style="stop-color:#AE8E38"/>
	</linearGradient>
	<path class="st24" d="M92.1,17.1h-7v4.4h8.2v3.4H80.7V6.5h12.7v3.4h-8.3v3.9h7C92.1,13.8,92.1,17.1,92.1,17.1z"/>
	<linearGradient id="SVGID_26_" gradientUnits="userSpaceOnUse" x1="260.833" y1="13.5936" x2="66.7154" y2="16.1818">
		<stop  offset="0" style="stop-color:#C79D3C"/>
		<stop  offset="0.5279" style="stop-color:#E9D696"/>
		<stop  offset="1" style="stop-color:#AE8E38"/>
	</linearGradient>
	<path class="st25" d="M110.5,24.9h-4.4v-7.7h-6.5v7.7h-4.4V6.5h4.4v7.3h6.5V6.5h4.4V24.9z"/>
	<linearGradient id="SVGID_27_" gradientUnits="userSpaceOnUse" x1="260.8355" y1="13.7815" x2="66.7179" y2="16.3698">
		<stop  offset="0" style="stop-color:#C79D3C"/>
		<stop  offset="0.5279" style="stop-color:#E9D696"/>
		<stop  offset="1" style="stop-color:#AE8E38"/>
	</linearGradient>
	<path class="st26" d="M127.4,9.9h-5.5v15h-4.4v-15H112V6.5h15.4V9.9z"/>
	<linearGradient id="SVGID_28_" gradientUnits="userSpaceOnUse" x1="260.8381" y1="13.9755" x2="66.7205" y2="16.5637">
		<stop  offset="0" style="stop-color:#C79D3C"/>
		<stop  offset="0.5279" style="stop-color:#E9D696"/>
		<stop  offset="1" style="stop-color:#AE8E38"/>
	</linearGradient>
	<path class="st27" d="M133.7,18.7v6.2h-4.4V6.5h7.3c1.4,0,2.7,0.3,3.7,0.8c1.1,0.5,1.9,1.3,2.5,2.2s0.9,2,0.9,3.3
		c0,1.8-0.6,3.2-1.9,4.3c-1.3,1.1-3,1.6-5.3,1.6H133.7z M133.7,15.2h2.9c0.9,0,1.5-0.2,2-0.6c0.5-0.4,0.7-1,0.7-1.8
		c0-0.9-0.2-1.5-0.7-2.1c-0.5-0.5-1.1-0.8-1.9-0.8h-3V15.2z"/>
	<linearGradient id="SVGID_29_" gradientUnits="userSpaceOnUse" x1="260.8418" y1="14.252" x2="66.7241" y2="16.8403">
		<stop  offset="0" style="stop-color:#C79D3C"/>
		<stop  offset="0.5279" style="stop-color:#E9D696"/>
		<stop  offset="1" style="stop-color:#AE8E38"/>
	</linearGradient>
	<path class="st28" d="M165,9.9h-8v2.9h2.3c1.5,0,2.7,0.2,3.9,0.7s2,1.2,2.6,2.1s0.9,1.9,0.9,3.1c0,1.8-0.7,3.3-2,4.4
		s-3.1,1.7-5.4,1.7h-6.7V6.5H165V9.9z M157,16.2v5.2h2.3c0.9,0,1.6-0.3,2.1-0.8s0.8-1.2,0.8-2s-0.3-1.4-0.8-1.8
		c-0.5-0.5-1.2-0.7-2.2-0.7L157,16.2L157,16.2z"/>
	<linearGradient id="SVGID_30_" gradientUnits="userSpaceOnUse" x1="260.8458" y1="14.5547" x2="66.7282" y2="17.143">
		<stop  offset="0" style="stop-color:#C79D3C"/>
		<stop  offset="0.5279" style="stop-color:#E9D696"/>
		<stop  offset="1" style="stop-color:#AE8E38"/>
	</linearGradient>
	<path class="st29" d="M180.1,17.1h-7v4.4h8.2v3.4h-12.7V6.5h12.7v3.4H173v3.9h7v3.3H180.1z"/>
	<linearGradient id="SVGID_31_" gradientUnits="userSpaceOnUse" x1="260.8478" y1="14.7001" x2="66.7301" y2="17.2884">
		<stop  offset="0" style="stop-color:#C79D3C"/>
		<stop  offset="0.5279" style="stop-color:#E9D696"/>
		<stop  offset="1" style="stop-color:#AE8E38"/>
	</linearGradient>
	<path class="st30" d="M192.1,11.6c0-0.6-0.2-1-0.7-1.4s-1.1-0.5-1.8-0.5s-1.3,0.2-1.7,0.5s-0.7,0.8-0.7,1.3h-4.4
		c0-1,0.3-1.9,0.9-2.7c0.6-0.8,1.4-1.4,2.4-1.9c1.1-0.5,2.2-0.7,3.5-0.7c2.2,0,3.9,0.5,5.1,1.4s1.8,2.2,1.8,3.9
		c0,0.8-0.2,1.6-0.7,2.3s-1.2,1.2-2,1.6c1,0.4,1.8,0.9,2.3,1.6c0.5,0.7,0.8,1.6,0.8,2.7c0,1.7-0.7,3-2,3.9c-1.3,1-3.1,1.5-5.3,1.5
		c-2,0-3.7-0.5-5.1-1.4c-1.3-1-2-2.3-2-3.9h4.4c0,0.5,0.2,1,0.7,1.4s1.1,0.6,1.9,0.6c0.8,0,1.5-0.2,2-0.6s0.8-0.9,0.8-1.5
		c0-0.9-0.2-1.5-0.7-1.9c-0.4-0.4-1.1-0.6-1.9-0.6h-2.4v-3.3h2.5C191.4,13.8,192.1,13.1,192.1,11.6z"/>
	<linearGradient id="SVGID_32_" gradientUnits="userSpaceOnUse" x1="260.8516" y1="14.9853" x2="66.7339" y2="17.5735">
		<stop  offset="0" style="stop-color:#C79D3C"/>
		<stop  offset="0.5279" style="stop-color:#E9D696"/>
		<stop  offset="1" style="stop-color:#AE8E38"/>
	</linearGradient>
	<path class="st31" d="M214.9,24.9h-4.4v-15h-6.6v15h-4.4V6.5H215v18.4H214.9z"/>
	<linearGradient id="SVGID_33_" gradientUnits="userSpaceOnUse" x1="260.8545" y1="15.2079" x2="66.7369" y2="17.7962">
		<stop  offset="0" style="stop-color:#C79D3C"/>
		<stop  offset="0.5279" style="stop-color:#E9D696"/>
		<stop  offset="1" style="stop-color:#AE8E38"/>
	</linearGradient>
	<path class="st32" d="M229.1,17.1h-7v4.4h8.2v3.4h-12.7V6.5h12.7v3.4H222v3.9h7v3.3H229.1z"/>
	<linearGradient id="SVGID_34_" gradientUnits="userSpaceOnUse" x1="260.8574" y1="15.4206" x2="66.7397" y2="18.0088">
		<stop  offset="0" style="stop-color:#C79D3C"/>
		<stop  offset="0.5279" style="stop-color:#E9D696"/>
		<stop  offset="1" style="stop-color:#AE8E38"/>
	</linearGradient>
	<path class="st33" d="M238.6,17.6h-2.1v7.3h-4.4V6.5h4.4v7.1h1.7l3.5-7.1h5.4L242,15l5.7,9.9h-5.2L238.6,17.6z"/>
	<linearGradient id="SVGID_35_" gradientUnits="userSpaceOnUse" x1="260.8603" y1="15.6405" x2="66.7427" y2="18.2288">
		<stop  offset="0" style="stop-color:#C79D3C"/>
		<stop  offset="0.5279" style="stop-color:#E9D696"/>
		<stop  offset="1" style="stop-color:#AE8E38"/>
	</linearGradient>
	<path class="st34" d="M259.7,6.5h4.4v18.4h-4.4V13.3l-6.6,11.6h-4.4V6.5h4.4v11.6L259.7,6.5z"/>
</g>
<g>
	<g>
		<linearGradient id="SVGID_36_" gradientUnits="userSpaceOnUse" x1="45.3579" y1="19.7387" x2="5.8285" y2="20.6798">
			<stop  offset="0" style="stop-color:#C79D3C"/>
			<stop  offset="0.5279" style="stop-color:#E9D696"/>
			<stop  offset="1" style="stop-color:#AE8E38"/>
		</linearGradient>
		<path class="st35" d="M8.8,35.4l-0.2-0.7c-0.4-1.4-0.7-3-1-4.7l0-0.3l0.2-0.2L37.5,5.1l0.3,0.1c1.6,0.5,3.1,1.2,4.4,1.9l0.7,0.4
			L8.8,35.4z M8.7,30.1c0.2,1.3,0.5,2.4,0.7,3.5L41,7.6c-1-0.5-2.1-1-3.3-1.4L8.7,30.1z"/>
	</g>
	<g>
		<linearGradient id="SVGID_37_" gradientUnits="userSpaceOnUse" x1="45.4751" y1="24.6596" x2="5.9457" y2="25.6008">
			<stop  offset="0" style="stop-color:#C79D3C"/>
			<stop  offset="0.5279" style="stop-color:#E9D696"/>
			<stop  offset="1" style="stop-color:#AE8E38"/>
		</linearGradient>
		<path class="st36" d="M12.1,41.7l-0.3-0.4c-1-1.3-1.7-2.5-2.2-3.8l-0.1-0.3L44.4,8.5l0.3,0.3C45.6,9.4,46,10,46,10.5l0,0.1
			c0,0.3,0,1.4,0,2.9v0.2L12.1,41.7z M10.6,37.5c0.4,0.9,0.9,1.8,1.6,2.8L45,13.3c0-1.4,0-2.3,0-2.6l0-0.1c0-0.1-0.1-0.3-0.6-0.8
			L10.6,37.5z"/>
	</g>
	<g>
		<linearGradient id="SVGID_38_" gradientUnits="userSpaceOnUse" x1="45.6999" y1="34.1029" x2="6.1705" y2="35.0441">
			<stop  offset="0" style="stop-color:#C79D3C"/>
			<stop  offset="0.5279" style="stop-color:#E9D696"/>
			<stop  offset="1" style="stop-color:#AE8E38"/>
		</linearGradient>
		<path class="st37" d="M26.2,52.6c-0.4,0-7.8-4.2-12.6-9.2L13.2,43l0.4-0.3L46,16.1l0,1.1c-0.2,6.1-0.8,14.5-3,20.2
			C39.9,45.3,26.7,52.6,26.2,52.6C26.2,52.6,26.2,52.6,26.2,52.6z M14.7,43.1c4.4,4.4,10.3,7.8,11.5,8.4c1.7-0.9,13.1-7.4,15.8-14.5
			c2-5.2,2.7-12.9,2.9-18.8L14.7,43.1z"/>
	</g>
	<g>
		<linearGradient id="SVGID_39_" gradientUnits="userSpaceOnUse" x1="45.2408" y1="14.8183" x2="5.7114" y2="15.7595">
			<stop  offset="0" style="stop-color:#C79D3C"/>
			<stop  offset="0.5279" style="stop-color:#E9D696"/>
			<stop  offset="1" style="stop-color:#AE8E38"/>
		</linearGradient>
		<path class="st38" d="M7.3,27.7l-0.1-0.9c-0.8-7-0.7-14.1-0.7-16.2l0-0.1c0-2.3,9.5-7.2,19.7-7.2l0.1,0.5l0-0.5l0.1,0
			c2.7,0,5.4,0.3,8.1,1l1,0.2L7.3,27.7z M26.1,3.8v0.5c-10.7,0-18.6,5.2-18.7,6.2l0,0.1c0,1.9-0.1,8.5,0.6,15.1L33.3,5
			c-2.3-0.5-4.7-0.7-6.9-0.7l-0.1,0L26.1,3.8z"/>
	</g>
</g>
<rect x="52" y="0.2" class="st39" width="2.4" height="54.1"/>
</svg>
