<?xml version="1.0" encoding="utf-8"?>
<!-- Generator: Adobe Illustrator 24.1.2, SVG Export Plug-In . SVG Version: 6.00 Build 0)  -->
<svg version="1.1" id="Layer_1" xmlns="http://www.w3.org/2000/svg" xmlns:xlink="http://www.w3.org/1999/xlink" x="0px" y="0px"
	 viewBox="0 0 28 28" style="enable-background:new 0 0 28 28;" xml:space="preserve">
<style type="text/css">
	.st0{fill:#B89B49;}
</style>
<g>
	<path class="st0" d="M14,3c1.9,0,3.5,1.6,3.5,3.5c0,0.9-0.3,1.7-0.9,2.3c0,0-0.1,0.1-0.1,0.1c0,0-0.1,0.1-0.1,0.1
		c-0.6,0.6-1.5,0.9-2.3,0.9c-1.9,0-3.5-1.6-3.5-3.5C10.6,4.6,12.1,3,14,3 M14,0c-3.6,0-6.5,2.9-6.5,6.5c0,3.6,2.9,6.5,6.5,6.5
		c1.7,0,3.3-0.7,4.5-1.8c0,0,0.1-0.1,0.1-0.1c0,0,0.1-0.1,0.1-0.1c1.1-1.2,1.8-2.7,1.8-4.5C20.5,2.9,17.6,0,14,0L14,0z"/>
</g>
<g>
	<path class="st0" d="M23,27.9c-0.8,0-1.5-0.7-1.5-1.5c0-6.1-3.4-11-7.5-11c-4.1,0-7.5,5-7.5,11c0,0.8-0.7,1.5-1.5,1.5
		s-1.5-0.7-1.5-1.5c0-7.7,4.7-14,10.5-14s10.5,6.3,10.5,14C24.5,27.2,23.9,27.9,23,27.9z"/>
</g>
</svg>
