<?xml version="1.0" encoding="utf-8"?>
<!-- Generator: Adobe Illustrator 24.1.2, SVG Export Plug-In . SVG Version: 6.00 Build 0)  -->
<svg version="1.1" id="Layer_1" xmlns="http://www.w3.org/2000/svg" xmlns:xlink="http://www.w3.org/1999/xlink" x="0px" y="0px"
	 viewBox="0 0 28 28" style="enable-background:new 0 0 28 28;" xml:space="preserve">
<style type="text/css">
	.st0{fill-rule:evenodd;clip-rule:evenodd;fill:#FFFFFF;}
</style>
<path class="st0" d="M12.7,3.5c-5.1,0-9.2,4.1-9.2,9.2c0,5.1,4.1,9.2,9.2,9.2c2.5,0,4.7-1,6.4-2.6c0,0,0.1-0.1,0.1-0.1
	c0,0,0.1-0.1,0.1-0.1c1.6-1.6,2.6-3.9,2.6-6.4C21.8,7.6,17.7,3.5,12.7,3.5z M22.3,20.1c1.6-2.1,2.6-4.7,2.6-7.5
	c0-6.7-5.4-12.2-12.2-12.2C5.9,0.5,0.5,5.9,0.5,12.7c0,6.7,5.4,12.2,12.2,12.2c2.8,0,5.4-1,7.5-2.6l4.8,4.8c0.6,0.6,1.5,0.6,2.1,0
	c0.6-0.6,0.6-1.5,0-2.1L22.3,20.1z"/>
</svg>
