<svg width="40" height="40" viewBox="0 0 40 40" fill="none" xmlns="http://www.w3.org/2000/svg">
<path d="M40 20C40 31.0457 31.0457 40 20 40C8.9543 40 0 31.0457 0 20C0 8.9543 8.9543 0 20 0C31.0457 0 40 8.9543 40 20Z" fill="#B3B3B3"/>
<path d="M23.1352 28.3052H18.3788V28.381L18.3796 28.4184C18.3796 28.8379 18.2133 29.2401 17.9173 29.5368C17.6213 29.8334 17.2198 30 16.8011 30C16.3824 30 15.9809 29.8334 15.6849 29.5368C15.3889 29.2401 15.2226 28.8379 15.2226 28.4184L15.2234 28.3793V28.3052H14.6812C14.45 28.3052 14.2257 28.226 14.0457 28.0807C13.8657 27.9355 13.7406 27.7328 13.6914 27.5065L13.6905 27.4999L10.521 12.4634L7.81314 12.0116C7.55525 11.9594 7.3277 11.8088 7.17858 11.5916C7.02946 11.3744 6.97044 11.1077 7.01399 10.8477C7.05754 10.5877 7.20025 10.3549 7.41197 10.1984C7.6237 10.0419 7.88784 9.97398 8.14861 10.009L8.14363 10.0082L11.5324 10.5739C11.9451 10.6447 12.2689 10.9575 12.3553 11.3585L12.3561 11.3652L12.9307 14.0808L22.8163 14.9061C22.7553 15.2315 22.7241 15.5618 22.7233 15.8928V15.8962C22.7233 16.2306 22.7524 16.5584 22.8088 16.8771L22.8039 16.8438C22.5318 16.9297 22.3009 17.113 22.1552 17.3587C22.0095 17.6045 21.9593 17.8953 22.0142 18.1758L22.0133 18.1683L22.6104 22.4863C22.6469 22.7634 22.7731 23.0063 22.9575 23.1894C23.1252 23.3566 23.3552 23.4614 23.6101 23.4639H23.611C23.6674 23.4639 23.7231 23.4581 23.7762 23.4481L23.7704 23.4489C24.0535 23.3748 24.2979 23.1956 24.4541 22.9477C24.6103 22.6997 24.6666 22.4016 24.6116 22.1136L24.6124 22.1211L24.2869 19.7732C24.8035 20.3118 25.4235 20.7401 26.1097 21.0323C26.7958 21.3246 27.5338 21.4747 28.2793 21.4738C28.315 21.4738 28.3507 21.4738 28.3856 21.4688L28.4628 21.4646L27.9073 24.7111C27.894 24.7898 27.8534 24.8612 27.7926 24.9128C27.7318 24.9644 27.6548 24.9929 27.5752 24.9931H15.2317L15.5032 26.2802H27.2588C27.5204 26.2906 27.7678 26.402 27.9493 26.591C28.1308 26.78 28.2323 27.0321 28.2325 27.2944C28.2327 27.5567 28.1317 27.8089 27.9505 27.9983C27.7693 28.1876 27.522 28.2994 27.2605 28.3102H26.2923V28.3859C26.2923 28.8054 26.1259 29.2077 25.8299 29.5043C25.5339 29.8009 25.1324 29.9676 24.7137 29.9676C24.2951 29.9676 23.8936 29.8009 23.5975 29.5043C23.3015 29.2077 23.1352 28.8054 23.1352 28.3859V28.3052ZM24.2628 28.381C24.263 28.443 24.276 28.5044 24.3011 28.5612C24.3262 28.618 24.3628 28.6689 24.4085 28.7108C24.4543 28.7527 24.5082 28.7846 24.5669 28.8045C24.6256 28.8244 24.6878 28.8319 24.7496 28.8264C24.8113 28.821 24.8712 28.8028 24.9256 28.7729C24.9799 28.7431 25.0275 28.7022 25.0652 28.653C25.103 28.6038 25.1302 28.5472 25.145 28.4869C25.1598 28.4266 25.162 28.3639 25.1513 28.3027V28.3052H24.2711C24.2667 28.3302 24.2644 28.3556 24.2645 28.381H24.2628ZM16.351 28.381C16.3512 28.443 16.3642 28.5044 16.3893 28.5612C16.4144 28.618 16.451 28.6689 16.4967 28.7108C16.5425 28.7527 16.5964 28.7846 16.6551 28.8045C16.7138 28.8244 16.776 28.8319 16.8378 28.8264C16.8995 28.821 16.9594 28.8028 17.0138 28.7729C17.0681 28.7431 17.1157 28.7022 17.1535 28.653C17.1912 28.6038 17.2184 28.5472 17.2332 28.4869C17.248 28.4266 17.2502 28.3639 17.2395 28.3027V28.3052H16.3585C16.3543 28.3297 16.3524 28.3545 16.3527 28.3793V28.381H16.351ZM19.5621 16.8371C19.2789 16.9111 19.0343 17.0902 18.8781 17.3382C18.7219 17.5862 18.6657 17.8845 18.7209 18.1725L18.7201 18.165L19.3171 22.483C19.3537 22.76 19.4799 23.003 19.6642 23.186C19.832 23.3533 20.062 23.4581 20.3169 23.4606C20.3734 23.4606 20.4298 23.4548 20.483 23.4448L20.4772 23.4456C20.7603 23.3715 21.0047 23.1923 21.1609 22.9443C21.3171 22.6964 21.3733 22.3982 21.3183 22.1103L21.3192 22.1178L20.7221 17.7997C20.6877 17.5332 20.5655 17.2859 20.375 17.0967C20.2016 16.9232 19.9674 16.8244 19.7223 16.8213H19.7215C19.6642 16.8213 19.6086 16.8271 19.5546 16.838L19.5604 16.8371H19.5621ZM16.2688 16.8371C15.9847 16.9108 15.7393 17.0903 15.5828 17.3391C15.4263 17.5879 15.3705 17.8872 15.4268 18.1758L15.426 18.1683L16.023 22.4863C16.0596 22.7634 16.1858 23.0063 16.3701 23.1894C16.5379 23.3566 16.7679 23.4614 17.0228 23.4639H17.0236C17.0801 23.4639 17.1357 23.4581 17.1889 23.4481L17.1831 23.4489C17.4664 23.3751 17.7112 23.1961 17.8676 22.9481C18.0239 22.7 18.0803 22.4017 18.0251 22.1136L18.0259 22.1211L17.428 17.8006C17.3936 17.5341 17.2715 17.2867 17.0809 17.0975C16.9077 16.9237 16.6734 16.8248 16.4283 16.8222H16.4274C16.371 16.8222 16.3162 16.828 16.263 16.838L16.2688 16.8371ZM23.567 15.8986C23.5672 14.6453 24.0643 13.4434 24.949 12.5573C25.387 12.1186 25.907 11.7706 26.4793 11.5332C27.0516 11.2958 27.6649 11.1737 28.2843 11.1738C28.9037 11.1739 29.517 11.2962 30.0892 11.5338C30.6614 11.7714 31.1813 12.1196 31.6192 12.5585C32.057 12.9974 32.4044 13.5184 32.6413 14.0918C32.8782 14.6652 33.0001 15.2797 33 15.9003C32.9997 17.1539 32.5023 18.3559 31.6174 19.2421C30.7325 20.1283 29.5325 20.6259 28.2814 20.6256C27.0303 20.6253 25.8305 20.127 24.9461 19.2403C24.0617 18.3537 23.565 17.1514 23.5653 15.8978L23.567 15.8986ZM24.918 15.8986C24.918 16.3415 25.005 16.78 25.1742 17.1891C25.3433 17.5982 25.5912 17.9699 25.9037 18.283C26.2162 18.5962 26.5872 18.8446 26.9956 19.014C27.4039 19.1835 27.8415 19.2707 28.2835 19.2707C28.7254 19.2707 29.1631 19.1835 29.5714 19.014C29.9797 18.8446 30.3507 18.5962 30.6633 18.283C30.9758 17.9699 31.2237 17.5982 31.3928 17.1891C31.5619 16.78 31.649 16.3415 31.649 15.8986C31.6491 15.0041 31.2945 14.1462 30.6633 13.5135C30.0321 12.8809 29.1759 12.5255 28.2831 12.5254C27.3903 12.5252 26.534 12.8805 25.9026 13.513C25.2712 14.1454 24.9164 15.0033 24.9163 15.8978L24.918 15.8986ZM27.6084 17.2473V16.5751H26.9375C26.7582 16.5751 26.5863 16.5037 26.4595 16.3767C26.3327 16.2497 26.2615 16.0774 26.2615 15.8978C26.2615 15.7182 26.3327 15.5459 26.4595 15.4189C26.5863 15.2919 26.7582 15.2206 26.9375 15.2206H27.6084V14.5483C27.6084 14.3687 27.6796 14.1965 27.8064 14.0695C27.9331 13.9424 28.105 13.8711 28.2843 13.8711C28.4636 13.8711 28.6355 13.9424 28.7623 14.0695C28.889 14.1965 28.9602 14.3687 28.9602 14.5483V15.2206H29.6312C29.8104 15.2206 29.9824 15.2919 30.1091 15.4189C30.2359 15.5459 30.3071 15.7182 30.3071 15.8978C30.3071 16.0774 30.2359 16.2497 30.1091 16.3767C29.9824 16.5037 29.8104 16.5751 29.6312 16.5751H28.9602V17.2465C28.9602 17.4261 28.889 17.5983 28.7623 17.7253C28.6355 17.8524 28.4636 17.9237 28.2843 17.9237C28.105 17.9237 27.9331 17.8524 27.8064 17.7253C27.6796 17.5983 27.6084 17.4261 27.6084 17.2465V17.2473Z" fill="#EBEBEB"/>
</svg>
