<svg width="26" height="20" viewBox="0 0 26 20" fill="none" xmlns="http://www.w3.org/2000/svg">
<path d="M16.1352 18.3052H11.3788V18.381L11.3796 18.4184C11.3796 18.8379 11.2133 19.2401 10.9173 19.5368C10.6213 19.8334 10.2198 20 9.8011 20C9.38244 20 8.98093 19.8334 8.6849 19.5368C8.38887 19.2401 8.22256 18.8379 8.22256 18.4184L8.22339 18.3793V18.3052H7.68115C7.44998 18.3052 7.22575 18.226 7.0457 18.0807C6.86566 17.9355 6.74062 17.7328 6.69135 17.5065L6.69052 17.4999L3.52099 2.46337L0.813144 2.01161C0.555249 1.95941 0.327704 1.80881 0.178582 1.59163C0.0294594 1.37445 -0.0295608 1.10769 0.0139903 0.847707C0.0575414 0.587728 0.200253 0.354893 0.411974 0.198393C0.623695 0.0418919 0.887844 -0.0260173 1.14861 0.00901221L1.14363 0.00818023L4.53238 0.573932C4.94508 0.64465 5.26892 0.957478 5.35528 1.3585L5.35611 1.36515L5.93073 4.08076L15.8163 4.90609C15.7553 5.23146 15.7241 5.56176 15.7233 5.89283V5.89615C15.7233 6.23061 15.7524 6.55842 15.8088 6.87707L15.8039 6.84379C15.5318 6.9297 15.3009 7.11302 15.1552 7.35874C15.0095 7.60446 14.9593 7.89534 15.0142 8.1758L15.0133 8.16831L15.6104 12.4863C15.6469 12.7634 15.7731 13.0063 15.9575 13.1894C16.1252 13.3566 16.3552 13.4614 16.6101 13.4639H16.611C16.6674 13.4639 16.7231 13.4581 16.7762 13.4481L16.7704 13.4489C17.0535 13.3748 17.2979 13.1956 17.4541 12.9477C17.6103 12.6997 17.6666 12.4016 17.6116 12.1136L17.6124 12.1211L17.2869 9.77321C17.8035 10.3118 18.4235 10.7401 19.1097 11.0323C19.7958 11.3246 20.5338 11.4747 21.2793 11.4738C21.315 11.4738 21.3507 11.4738 21.3856 11.4688L21.4628 11.4646L20.9073 14.7111C20.894 14.7898 20.8534 14.8612 20.7926 14.9128C20.7318 14.9644 20.6548 14.9929 20.5752 14.9931H8.23169L8.50322 16.2802H20.2588C20.5204 16.2906 20.7678 16.402 20.9493 16.591C21.1308 16.78 21.2323 17.0321 21.2325 17.2944C21.2327 17.5567 21.1317 17.8089 20.9505 17.9983C20.7693 18.1876 20.522 18.2994 20.2605 18.3102H19.2923V18.3859C19.2923 18.8054 19.1259 19.2077 18.8299 19.5043C18.5339 19.8009 18.1324 19.9676 17.7137 19.9676C17.2951 19.9676 16.8936 19.8009 16.5975 19.5043C16.3015 19.2077 16.1352 18.8054 16.1352 18.3859V18.3052ZM17.2628 18.381C17.263 18.443 17.276 18.5044 17.3011 18.5612C17.3262 18.618 17.3628 18.6689 17.4085 18.7108C17.4543 18.7527 17.5082 18.7846 17.5669 18.8045C17.6256 18.8244 17.6878 18.8319 17.7496 18.8264C17.8113 18.821 17.8712 18.8028 17.9256 18.7729C17.9799 18.7431 18.0275 18.7022 18.0652 18.653C18.103 18.6038 18.1302 18.5472 18.145 18.4869C18.1598 18.4266 18.162 18.3639 18.1513 18.3027V18.3052H17.2711C17.2667 18.3302 17.2644 18.3556 17.2645 18.381H17.2628ZM9.35103 18.381C9.3512 18.443 9.36424 18.5044 9.38933 18.5612C9.41441 18.618 9.45099 18.6689 9.49674 18.7108C9.5425 18.7527 9.59644 18.7846 9.65514 18.8045C9.71385 18.8244 9.77604 18.8319 9.83777 18.8264C9.89951 18.821 9.95944 18.8028 10.0138 18.7729C10.0681 18.7431 10.1157 18.7022 10.1535 18.653C10.1912 18.6038 10.2184 18.5472 10.2332 18.4869C10.248 18.4266 10.2502 18.3639 10.2395 18.3027V18.3052H9.35851C9.35434 18.3297 9.3524 18.3545 9.35269 18.3793V18.381H9.35103ZM12.5621 6.83713C12.2789 6.91109 12.0343 7.09025 11.8781 7.33824C11.7219 7.58623 11.6657 7.88448 11.7209 8.17247L11.7201 8.16498L12.3171 12.483C12.3537 12.76 12.4799 13.003 12.6642 13.186C12.832 13.3533 13.062 13.4581 13.3169 13.4606C13.3734 13.4606 13.4298 13.4548 13.483 13.4448L13.4772 13.4456C13.7603 13.3715 14.0047 13.1923 14.1609 12.9443C14.3171 12.6964 14.3733 12.3982 14.3183 12.1103L14.3192 12.1178L13.7221 7.79974C13.6877 7.53324 13.5655 7.28585 13.375 7.09671C13.2016 6.92317 12.9674 6.82436 12.7223 6.82132H12.7215C12.6642 6.82132 12.6086 6.82715 12.5546 6.83796L12.5604 6.83713H12.5621ZM9.26883 6.83713C8.98466 6.91075 8.73926 7.0903 8.58277 7.3391C8.42628 7.5879 8.3705 7.88718 8.42683 8.1758L8.426 8.16831L9.02304 12.4863C9.05957 12.7634 9.18579 13.0063 9.37013 13.1894C9.53787 13.3566 9.76788 13.4614 10.0228 13.4639H10.0236C10.0801 13.4639 10.1357 13.4581 10.1889 13.4481L10.1831 13.4489C10.4664 13.3751 10.7112 13.1961 10.8676 12.9481C11.0239 12.7 11.0803 12.4017 11.0251 12.1136L11.0259 12.1211L10.428 7.80057C10.3936 7.53407 10.2715 7.28668 10.0809 7.09754C9.90773 6.9237 9.6734 6.82483 9.42826 6.82216H9.42743C9.37096 6.82216 9.31616 6.82798 9.26301 6.83796L9.26883 6.83713ZM16.567 5.89865C16.5672 4.64532 17.0643 3.44341 17.949 2.55733C18.387 2.11858 18.907 1.77058 19.4793 1.5332C20.0516 1.29581 20.6649 1.17369 21.2843 1.17379C21.9037 1.1739 22.517 1.29625 23.0892 1.53383C23.6614 1.77142 24.1813 2.11961 24.6192 2.5585C25.057 2.9974 25.4044 3.51842 25.6413 4.09181C25.8782 4.6652 26.0001 5.27973 26 5.90031C25.9997 7.15386 25.5023 8.35594 24.6174 9.2421C23.7325 10.1283 22.5325 10.6259 21.2814 10.6256C20.0303 10.6253 18.8305 10.127 17.9461 9.24034C17.0617 8.35371 16.565 7.15137 16.5653 5.89782L16.567 5.89865ZM17.918 5.89865C17.918 6.34147 18.005 6.77996 18.1742 7.18907C18.3433 7.59819 18.5912 7.96992 18.9037 8.28304C19.2162 8.59617 19.5872 8.84455 19.9956 9.01401C20.4039 9.18347 20.8415 9.27069 21.2835 9.27069C21.7254 9.27069 22.1631 9.18347 22.5714 9.01401C22.9797 8.84455 23.3507 8.59617 23.6633 8.28304C23.9758 7.96992 24.2237 7.59819 24.3928 7.18907C24.5619 6.77996 24.649 6.34147 24.649 5.89865C24.6491 5.00411 24.2945 4.14616 23.6633 3.51354C23.0321 2.88093 22.1759 2.52547 21.2831 2.52536C20.3903 2.52525 19.534 2.8805 18.9026 3.51296C18.2712 4.14541 17.9164 5.00328 17.9163 5.89782L17.918 5.89865ZM20.6084 7.2473V6.57506H19.9375C19.7582 6.57506 19.5863 6.5037 19.4595 6.3767C19.3327 6.24969 19.2615 6.07743 19.2615 5.89782C19.2615 5.7182 19.3327 5.54594 19.4595 5.41894C19.5863 5.29193 19.7582 5.22058 19.9375 5.22058H20.6084V4.54833C20.6084 4.36872 20.6796 4.19646 20.8064 4.06946C20.9331 3.94245 21.105 3.8711 21.2843 3.8711C21.4636 3.8711 21.6355 3.94245 21.7623 4.06946C21.889 4.19646 21.9602 4.36872 21.9602 4.54833V5.22058H22.6312C22.8104 5.22058 22.9824 5.29193 23.1091 5.41894C23.2359 5.54594 23.3071 5.7182 23.3071 5.89782C23.3071 6.07743 23.2359 6.24969 23.1091 6.3767C22.9824 6.5037 22.8104 6.57506 22.6312 6.57506H21.9602V7.24647C21.9602 7.42608 21.889 7.59834 21.7623 7.72535C21.6355 7.85236 21.4636 7.92371 21.2843 7.92371C21.105 7.92371 20.9331 7.85236 20.8064 7.72535C20.6796 7.59834 20.6084 7.42608 20.6084 7.24647V7.2473Z" fill="#EBEBEB"/>
</svg>
