<svg xmlns="http://www.w3.org/2000/svg" xmlns:xlink="http://www.w3.org/1999/xlink" viewBox="0 0 123.65 25.71"><defs><style>.cls-1{fill:url(#linear-gradient);}.cls-2{fill:url(#linear-gradient-2);}.cls-3{fill:url(#linear-gradient-13);}.cls-4{fill:url(#linear-gradient-15);}.cls-5{fill:url(#linear-gradient-25);}.cls-6{fill:url(#linear-gradient-36);}.cls-7{fill:url(#linear-gradient-37);}.cls-8{fill:url(#linear-gradient-38);}.cls-9{fill:url(#linear-gradient-39);}.cls-10{fill:#fbe27f;}</style><linearGradient id="linear-gradient" x1="25.21" y1="8.62" x2="123.8" y2="8.62" gradientUnits="userSpaceOnUse"><stop offset="0" stop-color="#ae8e36"/><stop offset="0.52" stop-color="#e7d493"/><stop offset="1" stop-color="#c79d3c"/></linearGradient><linearGradient id="linear-gradient-2" x1="25.21" y1="7.55" x2="123.8" y2="7.55" xlink:href="#linear-gradient"/><linearGradient id="linear-gradient-13" x1="25.21" y1="20.45" x2="123.8" y2="20.45" xlink:href="#linear-gradient"/><linearGradient id="linear-gradient-15" x1="25.21" y1="20.45" x2="123.8" y2="20.45" xlink:href="#linear-gradient"/><linearGradient id="linear-gradient-25" x1="25.21" y1="20.49" x2="123.8" y2="20.49" xlink:href="#linear-gradient"/><linearGradient id="linear-gradient-36" x1="-0.21" y1="11.97" x2="19.21" y2="11.97" xlink:href="#linear-gradient"/><linearGradient id="linear-gradient-37" x1="-0.21" y1="9.65" x2="19.21" y2="9.65" xlink:href="#linear-gradient"/><linearGradient id="linear-gradient-38" x1="-0.21" y1="16.38" x2="19.21" y2="16.38" xlink:href="#linear-gradient"/><linearGradient id="linear-gradient-39" x1="-0.21" y1="7.38" x2="19.21" y2="7.38" xlink:href="#linear-gradient"/></defs><g id="Layer_2" data-name="Layer 2"><g id="Layer_1-2" data-name="Layer 1"><path class="cls-1" d="M25.84,3.14H28v7.19h3.17V3.14h2.14v7.21h1.35L34.5,14.1h-2V12H25.84Z"/><path class="cls-2" d="M41,8.22H37.7v2.11h3.95V12H35.57V3.14h6.09V4.78h-4V6.64H41Z"/><path class="cls-2" d="M49.9,12H47.78V8.28H44.65V12H42.52V3.14h2.13v3.5h3.13V3.14H49.9Z"/><path class="cls-2" d="M58,4.78H55.35V12H53.22V4.78h-2.6V3.14H58Z"/><path class="cls-2" d="M61,9v3H58.89V3.14h3.52a4.11,4.11,0,0,1,1.8.37,2.82,2.82,0,0,1,1.2,1.06,2.87,2.87,0,0,1,.43,1.57,2.57,2.57,0,0,1-.92,2.06A3.89,3.89,0,0,1,62.38,9Zm0-1.64h1.39a1.31,1.31,0,0,0,1-.31,1.18,1.18,0,0,0,.32-.87,1.43,1.43,0,0,0-.33-1,1.2,1.2,0,0,0-.91-.38H61Z"/><path class="cls-2" d="M76,4.78H72.21v1.4H73.3a4.54,4.54,0,0,1,1.86.36,2.76,2.76,0,0,1,1.24,1A2.66,2.66,0,0,1,76.83,9a2.6,2.6,0,0,1-1,2.11,3.85,3.85,0,0,1-2.59.82h-3.2V3.14h6Zm-3.82,3v2.52H73.3a1.41,1.41,0,0,0,1-.36A1.24,1.24,0,0,0,74.7,9a1.11,1.11,0,0,0-.37-.88,1.54,1.54,0,0,0-1-.34Z"/><path class="cls-2" d="M83.29,8.22H80v2.11h4V12H77.82V3.14h6.09V4.78H80V6.64h3.34Z"/><path class="cls-2" d="M89.06,5.59a.79.79,0,0,0-.32-.67,1.4,1.4,0,0,0-.88-.26,1.25,1.25,0,0,0-.82.25.77.77,0,0,0-.31.64H84.6A2.15,2.15,0,0,1,85,4.25a2.83,2.83,0,0,1,1.17-.9A4.15,4.15,0,0,1,87.86,3a4,4,0,0,1,2.46.67,2.17,2.17,0,0,1,.87,1.84,1.9,1.9,0,0,1-.35,1.11,2.42,2.42,0,0,1-1,.79A2.19,2.19,0,0,1,91,8.21a2,2,0,0,1,.38,1.28,2.21,2.21,0,0,1-.94,1.89,4.13,4.13,0,0,1-2.53.7,4,4,0,0,1-2.42-.69,2.2,2.2,0,0,1-1-1.88h2.13a.83.83,0,0,0,.35.67,1.46,1.46,0,0,0,.9.27,1.62,1.62,0,0,0,1-.28.87.87,0,0,0,.37-.73,1.16,1.16,0,0,0-.32-.92A1.37,1.37,0,0,0,88,8.25H86.83V6.67H88A1,1,0,0,0,89.06,5.59Z"/><path class="cls-2" d="M100,12H97.87V4.78H94.7V12H92.57V3.14H100Z"/><path class="cls-2" d="M106.79,8.22h-3.34v2.11h4V12h-6.08V3.14h6.09V4.78h-4V6.64h3.34Z"/><path class="cls-2" d="M111.39,8.47h-1V12h-2.13V3.14h2.13V6.55h.82l1.7-3.41h2.57l-2.42,4.07L115.78,12h-2.52Z"/><path class="cls-2" d="M121.48,3.14h2.12V12h-2.12V6.4L118.31,12h-2.13V3.14h2.13V8.71Z"/><path class="cls-3" d="M29.39,18.83H27.9v4.05h-1V18.83H25.43V18h4Z"/><path class="cls-3" d="M32.89,20.78H31v1.3h2.26v.8H30V18h3.25v.81H31V20h1.93Z"/><path class="cls-4" d="M37.62,21.26A1.68,1.68,0,0,1,37,22.5a2,2,0,0,1-1.37.45,1.81,1.81,0,0,1-1.47-.63,2.58,2.58,0,0,1-.54-1.73V20.3a2.86,2.86,0,0,1,.25-1.24,1.83,1.83,0,0,1,.7-.82,2.24,2.24,0,0,1,2.43.17,1.83,1.83,0,0,1,.59,1.26h-1a1,1,0,0,0-.26-.68,1,1,0,0,0-.69-.21.86.86,0,0,0-.75.36,2,2,0,0,0-.25,1.11v.37a2.17,2.17,0,0,0,.24,1.15.82.82,0,0,0,.75.36,1,1,0,0,0,.69-.21,1,1,0,0,0,.26-.66Z"/><path class="cls-3" d="M42.24,22.88h-1V20.8H39.28v2.08h-1V18h1v2h1.95V18h1Z"/><path class="cls-3" d="M47.06,22.88h-1l-2-3.2v3.2h-1V18h1l2,3.21V18h1Z"/><path class="cls-3" d="M49,22.88H48V18h1Z"/><path class="cls-4" d="M53.74,21.26a1.71,1.71,0,0,1-.57,1.24,2,2,0,0,1-1.38.45,1.82,1.82,0,0,1-1.47-.63,2.58,2.58,0,0,1-.54-1.73V20.3A2.86,2.86,0,0,1,50,19.06a1.83,1.83,0,0,1,.7-.82,2.24,2.24,0,0,1,2.43.17,1.83,1.83,0,0,1,.59,1.26h-1a1,1,0,0,0-.26-.68,1,1,0,0,0-.69-.21.86.86,0,0,0-.75.36,2,2,0,0,0-.25,1.11v.37A2.17,2.17,0,0,0,51,21.77a.83.83,0,0,0,.75.36,1,1,0,0,0,.69-.21,1,1,0,0,0,.26-.66Z"/><path class="cls-3" d="M57.15,21.88H55.39l-.33,1H54L55.8,18h.93l1.82,4.86H57.48Zm-1.49-.81h1.22l-.62-1.82Z"/><path class="cls-3" d="M60,22.08h2.13v.8H59V18h1Z"/><path class="cls-4" d="M66.92,21.61a.5.5,0,0,0-.2-.44,2.5,2.5,0,0,0-.72-.32,4.93,4.93,0,0,1-.82-.33,1.36,1.36,0,0,1-.83-1.21,1.16,1.16,0,0,1,.22-.7,1.52,1.52,0,0,1,.64-.48,2.33,2.33,0,0,1,.93-.17,2.27,2.27,0,0,1,.93.18,1.52,1.52,0,0,1,.63.54,1.4,1.4,0,0,1,.23.78h-1a.66.66,0,0,0-.21-.52.89.89,0,0,0-.59-.19.92.92,0,0,0-.57.16.48.48,0,0,0-.21.41.45.45,0,0,0,.24.39,2.76,2.76,0,0,0,.7.31,3.09,3.09,0,0,1,1.25.63,1.28,1.28,0,0,1,.39,1,1.17,1.17,0,0,1-.48,1,2.09,2.09,0,0,1-1.28.36,2.38,2.38,0,0,1-1-.21,1.55,1.55,0,0,1-.71-.56,1.45,1.45,0,0,1-.24-.83h1q0,.81,1,.81a.9.9,0,0,0,.55-.15A.44.44,0,0,0,66.92,21.61Z"/><path class="cls-3" d="M71.53,20.78H69.61v1.3h2.25v.8H68.61V18h3.25v.81H69.61V20h1.92Z"/><path class="cls-4" d="M76.27,21.26a1.76,1.76,0,0,1-.58,1.24,2,2,0,0,1-1.38.45,1.84,1.84,0,0,1-1.47-.63,2.58,2.58,0,0,1-.54-1.73V20.3a3,3,0,0,1,.25-1.24,1.85,1.85,0,0,1,.71-.82A2,2,0,0,1,74.32,18a2,2,0,0,1,1.36.45,1.83,1.83,0,0,1,.59,1.26h-1a.82.82,0,0,0-1-.89.86.86,0,0,0-.75.36,2,2,0,0,0-.25,1.11v.37a2.17,2.17,0,0,0,.24,1.15.84.84,0,0,0,.75.36,1,1,0,0,0,.69-.21,1,1,0,0,0,.26-.66Z"/><path class="cls-5" d="M80.6,18v3.2a1.62,1.62,0,0,1-.5,1.27,2.25,2.25,0,0,1-2.71,0,1.56,1.56,0,0,1-.51-1.24V18h1v3.21a.91.91,0,0,0,.23.7.89.89,0,0,0,.63.21.78.78,0,0,0,.86-.88V18Z"/><path class="cls-3" d="M83.22,21.1h-.8v1.78h-1V18h1.81a2,2,0,0,1,1.33.39A1.3,1.3,0,0,1,85,19.49a1.53,1.53,0,0,1-.21.83,1.45,1.45,0,0,1-.65.53l1,2v0H84.13Zm-.8-.81h.81a.84.84,0,0,0,.59-.19.71.71,0,0,0,.2-.53.73.73,0,0,0-.19-.54.82.82,0,0,0-.6-.2h-.81Z"/><path class="cls-3" d="M86.85,22.88h-1V18h1Z"/><path class="cls-3" d="M91.34,18.83H89.85v4.05h-1V18.83H87.38V18h4Z"/><path class="cls-3" d="M93.64,20.21l1-2.19h1.09l-1.59,3.1v1.76h-1V21.12L91.54,18h1.09Z"/><path class="cls-4" d="M100.41,21.61a.53.53,0,0,0-.2-.44,2.5,2.5,0,0,0-.72-.32,5.09,5.09,0,0,1-.83-.33,1.35,1.35,0,0,1-.82-1.21,1.16,1.16,0,0,1,.22-.7,1.52,1.52,0,0,1,.64-.48,2.56,2.56,0,0,1,1.86,0,1.52,1.52,0,0,1,.63.54,1.39,1.39,0,0,1,.22.78h-1a.66.66,0,0,0-.21-.52.87.87,0,0,0-.59-.19,1,1,0,0,0-.57.16.5.5,0,0,0-.2.41.45.45,0,0,0,.24.39,2.76,2.76,0,0,0,.7.31,3,3,0,0,1,1.24.63,1.28,1.28,0,0,1,.39,1,1.16,1.16,0,0,1-.47,1,2.1,2.1,0,0,1-1.29.36,2.45,2.45,0,0,1-1-.21,1.52,1.52,0,0,1-.7-.56,1.45,1.45,0,0,1-.24-.83h1q0,.81,1,.81a.91.91,0,0,0,.56-.15A.47.47,0,0,0,100.41,21.61Z"/><path class="cls-3" d="M103.77,20.21l1-2.19h1.09l-1.59,3.1v1.76h-1V21.12L101.67,18h1.09Z"/><path class="cls-4" d="M108.78,21.61a.5.5,0,0,0-.2-.44,2.5,2.5,0,0,0-.72-.32,4.93,4.93,0,0,1-.82-.33,1.36,1.36,0,0,1-.83-1.21,1.16,1.16,0,0,1,.22-.7,1.52,1.52,0,0,1,.64-.48A2.33,2.33,0,0,1,108,18a2.27,2.27,0,0,1,.93.18,1.52,1.52,0,0,1,.63.54,1.4,1.4,0,0,1,.23.78h-1a.66.66,0,0,0-.21-.52.89.89,0,0,0-.59-.19.92.92,0,0,0-.57.16.48.48,0,0,0-.21.41.45.45,0,0,0,.24.39,2.76,2.76,0,0,0,.7.31,3.09,3.09,0,0,1,1.25.63,1.28,1.28,0,0,1,.39,1,1.17,1.17,0,0,1-.48,1A2.09,2.09,0,0,1,108,23a2.38,2.38,0,0,1-1-.21,1.55,1.55,0,0,1-.71-.56,1.45,1.45,0,0,1-.24-.83h1q0,.81,1,.81a.88.88,0,0,0,.55-.15A.44.44,0,0,0,108.78,21.61Z"/><path class="cls-3" d="M114.12,18.83h-1.48v4.05h-1V18.83h-1.47V18h4Z"/><path class="cls-3" d="M117.62,20.78H115.7v1.3H118v.8H114.7V18H118v.81H115.7V20h1.92Z"/><path class="cls-3" d="M119.85,18l1.25,3.53L122.34,18h1.31v4.86h-1V21.55l.1-2.29-1.31,3.62h-.69l-1.31-3.62.1,2.29v1.33h-1V18Z"/><path class="cls-6" d="M18.17,4.61l.39.33V6.3l-15.72,13,0-.06a11.57,11.57,0,0,1-.74-1.3L18.17,4.61m0-.64L1.43,17.75a11.15,11.15,0,0,0,1,1.72c.12.17.25.33.38.5L19.06,6.53V4.74A6.78,6.78,0,0,0,18.17,4Z"/><path class="cls-7" d="M15.07,2.83a13,13,0,0,1,1.59.76L1.36,16.2a15.28,15.28,0,0,1-.44-1.71L15.07,2.83M15,2.26.37,14.3A15.81,15.81,0,0,0,1.13,17L17.52,3.52A13.13,13.13,0,0,0,15,2.26Z"/><path class="cls-8" d="M18.56,8.56v.79c0,2.12,0,6.53-2.29,9.84-1.95,2.8-5.77,5-6.74,5.51A24.64,24.64,0,0,1,4,20.59l14.6-12m.5-1.06-15.82,13a24.54,24.54,0,0,0,6.29,4.72s4.82-2.44,7.15-5.79,2.38-7.73,2.38-10.12V7.5Z"/><path class="cls-9" d="M9.53,1.82a15.87,15.87,0,0,1,3.54.4L.63,12.47C.52,11.29.5,10.21.5,9.35V4.94a13.3,13.3,0,0,1,9-3.12m0-.5C3.13,1.32,0,4.74,0,4.74V9.35a29.33,29.33,0,0,0,.24,4.09L14.14,2a16.17,16.17,0,0,0-4.61-.66Z"/><rect class="cls-10" x="22" width="0.91" height="25.71"/></g></g></svg>